<svg xmlns="http://www.w3.org/2000/svg" xmlns:xlink="http://www.w3.org/1999/xlink" width="500" zoomAndPan="magnify" viewBox="0 0 375 374.999991" height="500" preserveAspectRatio="xMidYMid meet" version="1.0"><defs><filter x="0%" y="0%" width="100%" height="100%" id="8dee50d324"><feColorMatrix values="0 0 0 0 1 0 0 0 0 1 0 0 0 0 1 0 0 0 1 0" color-interpolation-filters="sRGB"/></filter><g/><clipPath id="6ae0a657df"><path d="M 375 75 L 375 300 C 375 319.890625 367.097656 338.96875 353.03125 353.03125 C 338.96875 367.097656 319.890625 375 300 375 L 75 375 C 55.109375 375 36.03125 367.097656 21.96875 353.03125 C 7.902344 338.96875 0 319.890625 0 300 L 0 75 C 0 33.578125 33.578125 0 75 0 L 300 0 C 319.890625 0 338.96875 7.902344 353.03125 21.96875 C 367.097656 36.03125 375 55.109375 375 75 Z M 375 75 " clip-rule="nonzero"/></clipPath><clipPath id="427c11fd02"><path d="M 0 0 L 375 0 L 375 375 L 0 375 Z M 0 0 " clip-rule="nonzero"/></clipPath><clipPath id="b54fca4eb5"><path d="M 375 75 L 375 300 C 375 319.890625 367.097656 338.96875 353.03125 353.03125 C 338.96875 367.097656 319.890625 375 300 375 L 75 375 C 55.109375 375 36.03125 367.097656 21.96875 353.03125 C 7.902344 338.96875 0 319.890625 0 300 L 0 75 C 0 33.578125 33.578125 0 75 0 L 300 0 C 319.890625 0 338.96875 7.902344 353.03125 21.96875 C 367.097656 36.03125 375 55.109375 375 75 Z M 375 75 " clip-rule="nonzero"/></clipPath><clipPath id="856c88b7ce"><rect x="0" width="375" y="0" height="375"/></clipPath><clipPath id="f05fdbee4f"><path d="M 0 0 L 375 0 L 375 375 L 0 375 Z M 0 0 " clip-rule="nonzero"/></clipPath><linearGradient x1="54.038272" gradientTransform="matrix(8.617556, 0, 0, 8.610193, -465.677845, -95.849994)" y1="29" x2="97.554085" gradientUnits="userSpaceOnUse" y2="29" id="adf884eac6"><stop stop-opacity="1" stop-color="rgb(12.939453%, 3.529358%, 30.198669%)" offset="0"/><stop stop-opacity="1" stop-color="rgb(12.939453%, 3.529358%, 30.198669%)" offset="0.125"/><stop stop-opacity="1" stop-color="rgb(12.939453%, 3.529358%, 30.198669%)" offset="0.1875"/><stop stop-opacity="1" stop-color="rgb(12.965393%, 3.569031%, 30.308533%)" offset="0.195312"/><stop stop-opacity="1" stop-color="rgb(13.098145%, 3.770447%, 30.859375%)" offset="0.199219"/><stop stop-opacity="1" stop-color="rgb(13.204956%, 3.93219%, 31.30188%)" offset="0.203125"/><stop stop-opacity="1" stop-color="rgb(13.311768%, 4.092407%, 31.742859%)" offset="0.207031"/><stop stop-opacity="1" stop-color="rgb(13.418579%, 4.25415%, 32.183838%)" offset="0.210937"/><stop stop-opacity="1" stop-color="rgb(13.525391%, 4.414368%, 32.624817%)" offset="0.214844"/><stop stop-opacity="1" stop-color="rgb(13.632202%, 4.576111%, 33.067322%)" offset="0.21875"/><stop stop-opacity="1" stop-color="rgb(13.739014%, 4.737854%, 33.508301%)" offset="0.222656"/><stop stop-opacity="1" stop-color="rgb(13.845825%, 4.899597%, 33.950806%)" offset="0.226562"/><stop stop-opacity="1" stop-color="rgb(13.951111%, 5.059814%, 34.391785%)" offset="0.230469"/><stop stop-opacity="1" stop-color="rgb(14.057922%, 5.221558%, 34.832764%)" offset="0.234375"/><stop stop-opacity="1" stop-color="rgb(14.164734%, 5.381775%, 35.273743%)" offset="0.238281"/><stop stop-opacity="1" stop-color="rgb(14.271545%, 5.543518%, 35.716248%)" offset="0.242187"/><stop stop-opacity="1" stop-color="rgb(14.378357%, 5.705261%, 36.157227%)" offset="0.246094"/><stop stop-opacity="1" stop-color="rgb(14.485168%, 5.867004%, 36.599731%)" offset="0.25"/><stop stop-opacity="1" stop-color="rgb(14.59198%, 6.027222%, 37.04071%)" offset="0.253906"/><stop stop-opacity="1" stop-color="rgb(14.698792%, 6.188965%, 37.481689%)" offset="0.257812"/><stop stop-opacity="1" stop-color="rgb(14.805603%, 6.349182%, 37.922668%)" offset="0.261719"/><stop stop-opacity="1" stop-color="rgb(14.912415%, 6.510925%, 38.365173%)" offset="0.265625"/><stop stop-opacity="1" stop-color="rgb(15.0177%, 6.672668%, 38.806152%)" offset="0.269531"/><stop stop-opacity="1" stop-color="rgb(15.124512%, 6.834412%, 39.248657%)" offset="0.273438"/><stop stop-opacity="1" stop-color="rgb(15.231323%, 6.994629%, 39.689636%)" offset="0.277344"/><stop stop-opacity="1" stop-color="rgb(15.338135%, 7.156372%, 40.130615%)" offset="0.28125"/><stop stop-opacity="1" stop-color="rgb(15.444946%, 7.316589%, 40.571594%)" offset="0.285156"/><stop stop-opacity="1" stop-color="rgb(15.551758%, 7.478333%, 41.014099%)" offset="0.289062"/><stop stop-opacity="1" stop-color="rgb(15.658569%, 7.640076%, 41.455078%)" offset="0.292969"/><stop stop-opacity="1" stop-color="rgb(15.765381%, 7.801819%, 41.897583%)" offset="0.296875"/><stop stop-opacity="1" stop-color="rgb(15.870667%, 7.962036%, 42.338562%)" offset="0.300781"/><stop stop-opacity="1" stop-color="rgb(15.977478%, 8.123779%, 42.779541%)" offset="0.304688"/><stop stop-opacity="1" stop-color="rgb(16.08429%, 8.283997%, 43.22052%)" offset="0.308594"/><stop stop-opacity="1" stop-color="rgb(16.191101%, 8.44574%, 43.663025%)" offset="0.3125"/><stop stop-opacity="1" stop-color="rgb(16.297913%, 8.607483%, 44.104004%)" offset="0.316406"/><stop stop-opacity="1" stop-color="rgb(16.404724%, 8.769226%, 44.546509%)" offset="0.320312"/><stop stop-opacity="1" stop-color="rgb(16.511536%, 8.929443%, 44.987488%)" offset="0.324219"/><stop stop-opacity="1" stop-color="rgb(16.618347%, 9.091187%, 45.428467%)" offset="0.328125"/><stop stop-opacity="1" stop-color="rgb(16.725159%, 9.251404%, 45.869446%)" offset="0.332031"/><stop stop-opacity="1" stop-color="rgb(16.83197%, 9.413147%, 46.311951%)" offset="0.335938"/><stop stop-opacity="1" stop-color="rgb(16.937256%, 9.573364%, 46.75293%)" offset="0.339844"/><stop stop-opacity="1" stop-color="rgb(17.044067%, 9.735107%, 47.195435%)" offset="0.34375"/><stop stop-opacity="1" stop-color="rgb(17.150879%, 9.896851%, 47.636414%)" offset="0.347656"/><stop stop-opacity="1" stop-color="rgb(17.25769%, 10.058594%, 48.077393%)" offset="0.351562"/><stop stop-opacity="1" stop-color="rgb(17.364502%, 10.218811%, 48.518372%)" offset="0.355469"/><stop stop-opacity="1" stop-color="rgb(17.471313%, 10.380554%, 48.960876%)" offset="0.359375"/><stop stop-opacity="1" stop-color="rgb(17.578125%, 10.540771%, 49.401855%)" offset="0.363281"/><stop stop-opacity="1" stop-color="rgb(17.684937%, 10.702515%, 49.84436%)" offset="0.367187"/><stop stop-opacity="1" stop-color="rgb(17.790222%, 10.864258%, 50.285339%)" offset="0.371094"/><stop stop-opacity="1" stop-color="rgb(17.897034%, 11.026001%, 50.726318%)" offset="0.375"/><stop stop-opacity="1" stop-color="rgb(18.003845%, 11.186218%, 51.167297%)" offset="0.378906"/><stop stop-opacity="1" stop-color="rgb(18.110657%, 11.347961%, 51.609802%)" offset="0.382812"/><stop stop-opacity="1" stop-color="rgb(18.217468%, 11.508179%, 52.050781%)" offset="0.386719"/><stop stop-opacity="1" stop-color="rgb(18.32428%, 11.669922%, 52.493286%)" offset="0.390625"/><stop stop-opacity="1" stop-color="rgb(18.431091%, 11.831665%, 52.934265%)" offset="0.394531"/><stop stop-opacity="1" stop-color="rgb(18.537903%, 11.993408%, 53.375244%)" offset="0.398437"/><stop stop-opacity="1" stop-color="rgb(18.643188%, 12.153625%, 53.816223%)" offset="0.402344"/><stop stop-opacity="1" stop-color="rgb(18.75%, 12.315369%, 54.258728%)" offset="0.40625"/><stop stop-opacity="1" stop-color="rgb(18.856812%, 12.475586%, 54.699707%)" offset="0.410156"/><stop stop-opacity="1" stop-color="rgb(18.963623%, 12.637329%, 55.142212%)" offset="0.414062"/><stop stop-opacity="1" stop-color="rgb(19.070435%, 12.799072%, 55.583191%)" offset="0.417969"/><stop stop-opacity="1" stop-color="rgb(19.177246%, 12.960815%, 56.02417%)" offset="0.421875"/><stop stop-opacity="1" stop-color="rgb(19.284058%, 13.121033%, 56.465149%)" offset="0.425781"/><stop stop-opacity="1" stop-color="rgb(19.390869%, 13.282776%, 56.907654%)" offset="0.429687"/><stop stop-opacity="1" stop-color="rgb(19.497681%, 13.442993%, 57.348633%)" offset="0.433594"/><stop stop-opacity="1" stop-color="rgb(19.604492%, 13.604736%, 57.791138%)" offset="0.4375"/><stop stop-opacity="1" stop-color="rgb(19.709778%, 13.766479%, 58.232117%)" offset="0.441406"/><stop stop-opacity="1" stop-color="rgb(19.816589%, 13.928223%, 58.673096%)" offset="0.445312"/><stop stop-opacity="1" stop-color="rgb(19.923401%, 14.08844%, 59.114075%)" offset="0.449219"/><stop stop-opacity="1" stop-color="rgb(20.030212%, 14.250183%, 59.55658%)" offset="0.453125"/><stop stop-opacity="1" stop-color="rgb(20.137024%, 14.4104%, 59.997559%)" offset="0.457031"/><stop stop-opacity="1" stop-color="rgb(20.243835%, 14.572144%, 60.440063%)" offset="0.460938"/><stop stop-opacity="1" stop-color="rgb(20.350647%, 14.733887%, 60.881042%)" offset="0.464844"/><stop stop-opacity="1" stop-color="rgb(20.457458%, 14.89563%, 61.322021%)" offset="0.46875"/><stop stop-opacity="1" stop-color="rgb(20.562744%, 15.055847%, 61.763%)" offset="0.472656"/><stop stop-opacity="1" stop-color="rgb(20.669556%, 15.21759%, 62.205505%)" offset="0.476562"/><stop stop-opacity="1" stop-color="rgb(20.776367%, 15.377808%, 62.646484%)" offset="0.480469"/><stop stop-opacity="1" stop-color="rgb(20.883179%, 15.539551%, 63.088989%)" offset="0.484375"/><stop stop-opacity="1" stop-color="rgb(20.98999%, 15.701294%, 63.529968%)" offset="0.488281"/><stop stop-opacity="1" stop-color="rgb(21.096802%, 15.863037%, 63.970947%)" offset="0.492188"/><stop stop-opacity="1" stop-color="rgb(21.203613%, 16.023254%, 64.411926%)" offset="0.496094"/><stop stop-opacity="1" stop-color="rgb(21.310425%, 16.184998%, 64.854431%)" offset="0.5"/><stop stop-opacity="1" stop-color="rgb(21.417236%, 16.345215%, 65.29541%)" offset="0.503906"/><stop stop-opacity="1" stop-color="rgb(21.524048%, 16.506958%, 65.737915%)" offset="0.507812"/><stop stop-opacity="1" stop-color="rgb(21.629333%, 16.667175%, 66.178894%)" offset="0.511719"/><stop stop-opacity="1" stop-color="rgb(21.736145%, 16.828918%, 66.619873%)" offset="0.515625"/><stop stop-opacity="1" stop-color="rgb(21.842957%, 16.990662%, 67.060852%)" offset="0.519531"/><stop stop-opacity="1" stop-color="rgb(21.949768%, 17.152405%, 67.503357%)" offset="0.523437"/><stop stop-opacity="1" stop-color="rgb(22.05658%, 17.312622%, 67.944336%)" offset="0.527344"/><stop stop-opacity="1" stop-color="rgb(22.163391%, 17.474365%, 68.386841%)" offset="0.53125"/><stop stop-opacity="1" stop-color="rgb(22.270203%, 17.634583%, 68.82782%)" offset="0.535156"/><stop stop-opacity="1" stop-color="rgb(22.377014%, 17.796326%, 69.268799%)" offset="0.539062"/><stop stop-opacity="1" stop-color="rgb(22.4823%, 17.958069%, 69.709778%)" offset="0.542969"/><stop stop-opacity="1" stop-color="rgb(22.589111%, 18.119812%, 70.152283%)" offset="0.546875"/><stop stop-opacity="1" stop-color="rgb(22.695923%, 18.280029%, 70.593262%)" offset="0.550781"/><stop stop-opacity="1" stop-color="rgb(22.802734%, 18.441772%, 71.035767%)" offset="0.554687"/><stop stop-opacity="1" stop-color="rgb(22.909546%, 18.60199%, 71.476746%)" offset="0.558594"/><stop stop-opacity="1" stop-color="rgb(23.016357%, 18.763733%, 71.917725%)" offset="0.5625"/><stop stop-opacity="1" stop-color="rgb(23.123169%, 18.925476%, 72.358704%)" offset="0.566406"/><stop stop-opacity="1" stop-color="rgb(23.22998%, 19.087219%, 72.801208%)" offset="0.570312"/><stop stop-opacity="1" stop-color="rgb(23.336792%, 19.247437%, 73.242188%)" offset="0.574219"/><stop stop-opacity="1" stop-color="rgb(23.443604%, 19.40918%, 73.683167%)" offset="0.578125"/><stop stop-opacity="1" stop-color="rgb(23.548889%, 19.569397%, 74.124146%)" offset="0.582031"/><stop stop-opacity="1" stop-color="rgb(23.655701%, 19.73114%, 74.56665%)" offset="0.585937"/><stop stop-opacity="1" stop-color="rgb(23.762512%, 19.892883%, 75.007629%)" offset="0.589844"/><stop stop-opacity="1" stop-color="rgb(23.869324%, 20.054626%, 75.450134%)" offset="0.59375"/><stop stop-opacity="1" stop-color="rgb(23.976135%, 20.214844%, 75.891113%)" offset="0.597656"/><stop stop-opacity="1" stop-color="rgb(24.082947%, 20.376587%, 76.332092%)" offset="0.601562"/><stop stop-opacity="1" stop-color="rgb(24.189758%, 20.536804%, 76.773071%)" offset="0.605469"/><stop stop-opacity="1" stop-color="rgb(24.29657%, 20.698547%, 77.215576%)" offset="0.609375"/><stop stop-opacity="1" stop-color="rgb(24.401855%, 20.860291%, 77.656555%)" offset="0.613281"/><stop stop-opacity="1" stop-color="rgb(24.508667%, 21.022034%, 78.09906%)" offset="0.617187"/><stop stop-opacity="1" stop-color="rgb(24.615479%, 21.182251%, 78.540039%)" offset="0.621094"/><stop stop-opacity="1" stop-color="rgb(24.72229%, 21.343994%, 78.981018%)" offset="0.625"/><stop stop-opacity="1" stop-color="rgb(24.829102%, 21.504211%, 79.421997%)" offset="0.628906"/><stop stop-opacity="1" stop-color="rgb(24.935913%, 21.665955%, 79.864502%)" offset="0.632812"/><stop stop-opacity="1" stop-color="rgb(25.042725%, 21.827698%, 80.305481%)" offset="0.636719"/><stop stop-opacity="1" stop-color="rgb(25.149536%, 21.989441%, 80.747986%)" offset="0.640625"/><stop stop-opacity="1" stop-color="rgb(25.254822%, 22.149658%, 81.188965%)" offset="0.644531"/><stop stop-opacity="1" stop-color="rgb(25.361633%, 22.311401%, 81.629944%)" offset="0.648437"/><stop stop-opacity="1" stop-color="rgb(25.468445%, 22.471619%, 82.070923%)" offset="0.652344"/><stop stop-opacity="1" stop-color="rgb(25.575256%, 22.633362%, 82.513428%)" offset="0.65625"/><stop stop-opacity="1" stop-color="rgb(25.682068%, 22.795105%, 82.954407%)" offset="0.660156"/><stop stop-opacity="1" stop-color="rgb(25.788879%, 22.956848%, 83.396912%)" offset="0.664062"/><stop stop-opacity="1" stop-color="rgb(25.895691%, 23.117065%, 83.837891%)" offset="0.667969"/><stop stop-opacity="1" stop-color="rgb(26.002502%, 23.278809%, 84.27887%)" offset="0.671875"/><stop stop-opacity="1" stop-color="rgb(26.109314%, 23.439026%, 84.719849%)" offset="0.675781"/><stop stop-opacity="1" stop-color="rgb(26.216125%, 23.600769%, 85.162354%)" offset="0.679687"/><stop stop-opacity="1" stop-color="rgb(26.321411%, 23.762512%, 85.603333%)" offset="0.683594"/><stop stop-opacity="1" stop-color="rgb(26.428223%, 23.924255%, 86.045837%)" offset="0.6875"/><stop stop-opacity="1" stop-color="rgb(26.535034%, 24.084473%, 86.486816%)" offset="0.691406"/><stop stop-opacity="1" stop-color="rgb(26.641846%, 24.246216%, 86.927795%)" offset="0.695312"/><stop stop-opacity="1" stop-color="rgb(26.748657%, 24.406433%, 87.368774%)" offset="0.699219"/><stop stop-opacity="1" stop-color="rgb(26.855469%, 24.568176%, 87.811279%)" offset="0.703125"/><stop stop-opacity="1" stop-color="rgb(26.96228%, 24.728394%, 88.252258%)" offset="0.707031"/><stop stop-opacity="1" stop-color="rgb(27.069092%, 24.890137%, 88.694763%)" offset="0.710938"/><stop stop-opacity="1" stop-color="rgb(27.174377%, 25.05188%, 89.135742%)" offset="0.714844"/><stop stop-opacity="1" stop-color="rgb(27.281189%, 25.213623%, 89.576721%)" offset="0.71875"/><stop stop-opacity="1" stop-color="rgb(27.388%, 25.37384%, 90.0177%)" offset="0.722656"/><stop stop-opacity="1" stop-color="rgb(27.494812%, 25.535583%, 90.460205%)" offset="0.726562"/><stop stop-opacity="1" stop-color="rgb(27.601624%, 25.695801%, 90.901184%)" offset="0.730469"/><stop stop-opacity="1" stop-color="rgb(27.708435%, 25.857544%, 91.343689%)" offset="0.734375"/><stop stop-opacity="1" stop-color="rgb(27.815247%, 26.019287%, 91.784668%)" offset="0.738281"/><stop stop-opacity="1" stop-color="rgb(27.922058%, 26.18103%, 92.225647%)" offset="0.742188"/><stop stop-opacity="1" stop-color="rgb(28.02887%, 26.341248%, 92.666626%)" offset="0.746094"/><stop stop-opacity="1" stop-color="rgb(28.135681%, 26.502991%, 93.109131%)" offset="0.75"/><stop stop-opacity="1" stop-color="rgb(28.240967%, 26.663208%, 93.55011%)" offset="0.753906"/><stop stop-opacity="1" stop-color="rgb(28.347778%, 26.824951%, 93.992615%)" offset="0.757812"/><stop stop-opacity="1" stop-color="rgb(28.45459%, 26.986694%, 94.433594%)" offset="0.761719"/><stop stop-opacity="1" stop-color="rgb(28.561401%, 27.148438%, 94.874573%)" offset="0.765625"/><stop stop-opacity="1" stop-color="rgb(28.668213%, 27.308655%, 95.315552%)" offset="0.769531"/><stop stop-opacity="1" stop-color="rgb(28.775024%, 27.470398%, 95.758057%)" offset="0.773438"/><stop stop-opacity="1" stop-color="rgb(28.881836%, 27.630615%, 96.199036%)" offset="0.777344"/><stop stop-opacity="1" stop-color="rgb(28.988647%, 27.792358%, 96.641541%)" offset="0.78125"/><stop stop-opacity="1" stop-color="rgb(29.093933%, 27.954102%, 97.08252%)" offset="0.785156"/><stop stop-opacity="1" stop-color="rgb(29.200745%, 28.115845%, 97.523499%)" offset="0.789062"/><stop stop-opacity="1" stop-color="rgb(29.307556%, 28.276062%, 97.964478%)" offset="0.792969"/><stop stop-opacity="1" stop-color="rgb(29.414368%, 28.437805%, 98.406982%)" offset="0.796875"/><stop stop-opacity="1" stop-color="rgb(29.521179%, 28.598022%, 98.847961%)" offset="0.800781"/><stop stop-opacity="1" stop-color="rgb(29.627991%, 28.759766%, 99.290466%)" offset="0.804688"/><stop stop-opacity="1" stop-color="rgb(29.71344%, 28.889465%, 99.64447%)" offset="0.808594"/><stop stop-opacity="1" stop-color="rgb(29.798889%, 29.019165%, 100%)" offset="0.8125"/><stop stop-opacity="1" stop-color="rgb(29.798889%, 29.019165%, 100%)" offset="0.875"/><stop stop-opacity="1" stop-color="rgb(29.798889%, 29.019165%, 100%)" offset="1"/></linearGradient><clipPath id="9678c69eda"><rect x="0" width="375" y="0" height="375"/></clipPath><clipPath id="75cc32ba0f"><rect x="0" width="375" y="0" height="375"/></clipPath><clipPath id="956b5fb838"><rect x="0" width="375" y="0" height="375"/></clipPath><mask id="15488573e6"><g filter="url(#8dee50d324)"><g transform="matrix(1, 0, 0, 1, 0, 0)"><g clip-path="url(#956b5fb838)"><g transform="matrix(1, 0, 0, 1, 0, 0)"><g clip-path="url(#75cc32ba0f)"><g fill="#000000" fill-opacity="1"><g transform="translate(71.846289, 287.113204)"><g><path d="M 188.523438 -177.886719 L 188.523438 -130.9375 C 175.683594 -161.378906 142.675781 -181.1875 107.464844 -181.1875 C 56.117188 -181.1875 14.304688 -140.839844 14.304688 -88.757812 C 14.304688 -35.210938 56.117188 4.035156 107.832031 4.035156 C 142.675781 4.035156 171.285156 -12.835938 188.523438 -45.480469 L 188.523438 0 L 199.160156 0 L 199.160156 -177.886719 Z M 106.730469 -171.285156 C 152.578125 -171.285156 189.988281 -135.339844 189.988281 -88.027344 C 189.988281 -41.445312 153.3125 -5.5 108.199219 -5.5 C 61.617188 -5.5 25.308594 -41.445312 25.308594 -88.757812 C 25.308594 -134.972656 61.984375 -171.285156 106.730469 -171.285156 Z M 106.730469 -171.285156 "/></g></g></g></g></g></g></g></g></mask><clipPath id="e5542b160a"><path d="M 0 0 L 375 0 L 375 375 L 0 375 Z M 0 0 " clip-rule="nonzero"/></clipPath><clipPath id="d39f7efa6e"><rect x="0" width="375" y="0" height="375"/></clipPath><clipPath id="aab2096735"><rect x="0" width="375" y="0" height="375"/></clipPath><clipPath id="6cc2accbf2"><rect x="0" width="375" y="0" height="375"/></clipPath><clipPath id="29ec6cce81"><rect x="0" width="375" y="0" height="375"/></clipPath></defs><g clip-path="url(#6ae0a657df)"><g transform="matrix(1, 0, 0, 1, 0, 0)"><g clip-path="url(#856c88b7ce)"><g clip-path="url(#427c11fd02)"><g clip-path="url(#b54fca4eb5)"><rect x="-82.5" width="540" fill="#000000" height="539.999987" y="-82.499998" fill-opacity="1"/></g></g></g></g></g><g transform="matrix(1, 0, 0, 1, 0, 0)"><g clip-path="url(#29ec6cce81)"><g fill="#21094d" fill-opacity="1"><g transform="translate(70.562592, 290.932139)"><g><path d="M 197.6875 -179.96875 L 197.6875 -132.472656 L 184.316406 -129.765625 C 178.445312 -143.6875 168.53125 -154.9375 154.574219 -163.507812 C 140.632812 -172.070312 125.351562 -176.347656 108.722656 -176.347656 C 96.851562 -176.347656 85.519531 -174.125 74.734375 -169.675781 C 64.269531 -165.359375 55.023438 -159.25 46.996094 -151.351562 C 38.933594 -143.421875 32.703125 -134.277344 28.296875 -123.914062 C 23.71875 -113.148438 21.429688 -101.777344 21.429688 -89.796875 C 21.429688 -77.460938 23.722656 -65.851562 28.308594 -54.976562 C 32.707031 -44.554688 38.941406 -35.402344 47.019531 -27.523438 C 55.035156 -19.703125 64.308594 -13.671875 74.839844 -9.421875 C 85.652344 -5.058594 97.070312 -2.875 109.09375 -2.875 C 125.5625 -2.875 140.1875 -6.761719 152.976562 -14.527344 C 165.988281 -22.429688 176.519531 -34.007812 184.574219 -49.261719 L 197.6875 -46.011719 L 197.6875 0 L 190.726562 0 L 190.726562 -6.957031 L 201.488281 -6.957031 L 201.488281 0 L 194.53125 0 L 194.53125 -179.96875 L 201.488281 -179.96875 L 201.488281 -173.007812 L 190.726562 -173.007812 L 190.726562 -179.96875 Z M 183.769531 -186.925781 L 208.445312 -186.925781 L 208.445312 6.957031 L 183.769531 6.957031 L 183.769531 -46.011719 L 190.726562 -46.011719 L 196.882812 -42.761719 C 187.628906 -25.242188 175.402344 -11.867188 160.203125 -2.632812 C 145.195312 6.480469 128.15625 11.039062 109.09375 11.039062 C 95.269531 11.039062 82.117188 8.519531 69.632812 3.484375 C 57.402344 -1.449219 46.628906 -8.464844 37.304688 -17.5625 C 27.882812 -26.753906 20.613281 -37.421875 15.488281 -49.570312 C 10.171875 -62.175781 7.515625 -75.582031 7.515625 -89.796875 C 7.515625 -103.667969 10.171875 -116.855469 15.488281 -129.359375 C 20.617188 -141.414062 27.863281 -152.050781 37.238281 -161.273438 C 46.558594 -170.441406 57.289062 -177.53125 69.425781 -182.539062 C 81.914062 -187.6875 95.011719 -190.265625 108.722656 -190.265625 C 118.195312 -190.265625 127.5 -188.972656 136.632812 -186.390625 C 145.621094 -183.847656 154.03125 -180.171875 161.855469 -175.367188 C 169.765625 -170.507812 176.699219 -164.726562 182.648438 -158.027344 C 188.8125 -151.085938 193.640625 -143.46875 197.140625 -135.175781 L 190.726562 -132.472656 L 183.769531 -132.472656 Z M 107.980469 -180.246094 C 120.335938 -180.246094 132.128906 -177.925781 143.363281 -173.289062 C 154.316406 -168.769531 163.988281 -162.363281 172.378906 -154.074219 C 180.835938 -145.722656 187.371094 -136.066406 191.984375 -125.113281 C 196.777344 -113.746094 199.171875 -101.726562 199.171875 -89.054688 C 199.171875 -76.566406 196.820312 -64.699219 192.121094 -53.449219 C 187.589844 -42.59375 181.171875 -33.015625 172.875 -24.71875 C 164.617188 -16.460938 155.101562 -10.074219 144.335938 -5.566406 C 133.261719 -0.925781 121.636719 1.390625 109.464844 1.390625 C 96.941406 1.390625 85.058594 -0.925781 73.824219 -5.566406 C 62.886719 -10.082031 53.257812 -16.496094 44.941406 -24.8125 C 36.605469 -33.148438 30.175781 -42.808594 25.648438 -53.789062 C 20.980469 -65.113281 18.644531 -77.117188 18.644531 -89.796875 C 18.644531 -102.195312 20.992188 -114.011719 25.6875 -125.25 C 30.214844 -136.085938 36.613281 -145.660156 44.878906 -153.980469 C 53.117188 -162.269531 62.589844 -168.683594 73.292969 -173.222656 C 84.335938 -177.90625 95.898438 -180.246094 107.980469 -180.246094 Z M 107.980469 -166.332031 C 97.78125 -166.332031 88.03125 -164.359375 78.726562 -160.414062 C 69.699219 -156.582031 61.707031 -151.171875 54.75 -144.171875 C 47.761719 -137.140625 42.355469 -129.046875 38.527344 -119.886719 C 34.550781 -110.363281 32.5625 -100.335938 32.5625 -89.796875 C 32.5625 -78.953125 34.546875 -68.71875 38.511719 -59.09375 C 42.335938 -49.824219 47.757812 -41.675781 54.78125 -34.652344 C 61.789062 -27.644531 69.90625 -22.238281 79.136719 -18.425781 C 88.667969 -14.492188 98.78125 -12.523438 109.464844 -12.523438 C 119.773438 -12.523438 129.605469 -14.484375 138.960938 -18.402344 C 148.042969 -22.207031 156.066406 -27.589844 163.035156 -34.558594 C 170.039062 -41.5625 175.453125 -49.644531 179.28125 -58.8125 C 183.265625 -68.347656 185.253906 -78.425781 185.253906 -89.054688 C 185.253906 -99.851562 183.222656 -110.070312 179.164062 -119.710938 C 175.261719 -128.964844 169.742188 -137.117188 162.601562 -144.171875 C 155.503906 -151.183594 147.320312 -156.601562 138.054688 -160.425781 C 128.519531 -164.363281 118.496094 -166.332031 107.980469 -166.332031 Z M 107.980469 -166.332031 "/></g></g></g><g transform="matrix(1, 0, 0, 1, 0, 0)"><g clip-path="url(#6cc2accbf2)"><g transform="matrix(1, 0, 0, 1, 0, 0)"><g clip-path="url(#aab2096735)"><g mask="url(#15488573e6)"><g transform="matrix(1, 0, 0, 1, 0, 0)"><g clip-path="url(#d39f7efa6e)"><g clip-path="url(#e5542b160a)"><rect x="-279.06" fill="url(#adf884eac6)" width="933.12" y="-279.059993" height="933.119978"/></g></g></g></g></g></g></g></g></g></g></svg>