<svg xmlns="http://www.w3.org/2000/svg" xmlns:xlink="http://www.w3.org/1999/xlink" width="2500" zoomAndPan="magnify" viewBox="0 0 1874.88 749.999995" height="1000" preserveAspectRatio="xMidYMid meet" version="1.0"><defs><filter x="0%" y="0%" width="100%" height="100%" id="058121b8f2"><feColorMatrix values="0 0 0 0 1 0 0 0 0 1 0 0 0 0 1 0 0 0 1 0" color-interpolation-filters="sRGB"/></filter><g/><mask id="fe1cd3d37a"><g filter="url(#058121b8f2)"><rect x="-187.488" width="2249.856" fill="#000000" y="-74.999999" height="899.999994" fill-opacity="0.84"/></g></mask><clipPath id="bd9719d0e2"><path d="M 1.128906 1.765625 L 277.113281 1.765625 L 277.113281 381.238281 L 1.128906 381.238281 Z M 1.128906 1.765625 " clip-rule="nonzero"/></clipPath><clipPath id="42c513984e"><rect x="0" width="278" y="0" height="383"/></clipPath><clipPath id="fdd89f1815"><path d="M 220 244 L 372 244 L 372 399 L 220 399 Z M 220 244 " clip-rule="nonzero"/></clipPath><clipPath id="4e264e2354"><path d="M 220.601562 164.644531 L 448.695312 239.253906 L 368.953125 483.027344 L 140.863281 408.417969 Z M 220.601562 164.644531 " clip-rule="nonzero"/></clipPath><clipPath id="b0694883b3"><path d="M 220.601562 164.644531 L 448.695312 239.253906 L 368.953125 483.027344 L 140.863281 408.417969 Z M 220.601562 164.644531 " clip-rule="nonzero"/></clipPath><clipPath id="0bf56cd07e"><path d="M 316.042969 245.570312 C 319.378906 246.523438 322.65625 248.492188 324.644531 252.304688 C 329.578125 262.039062 339.191406 258.304688 344.734375 261.769531 C 350.253906 265.292969 350.8125 272.425781 350.542969 276.191406 C 350.273438 279.953125 361.964844 281.027344 363.042969 285.507812 C 364.125 289.988281 353.023438 301.839844 358.378906 305.652344 C 363.738281 309.46875 369.738281 310.265625 369.964844 313.570312 C 370.25 316.898438 365.238281 319.179688 367.15625 322.148438 C 369.078125 325.113281 372.289062 326.648438 371.609375 330.207031 C 370.925781 333.769531 360.078125 332.214844 360.632812 338.3125 C 361.183594 344.410156 372.644531 349.125 366.316406 356.273438 C 359.988281 363.421875 353.898438 354.894531 349.335938 363.378906 C 344.773438 371.859375 350.335938 379.253906 346.761719 383.242188 C 343.183594 387.234375 334.675781 381.699219 329.71875 383.175781 C 324.703125 384.628906 326.007812 392.625 320.183594 393.609375 C 314.359375 394.59375 305.269531 385.566406 299.355469 392.917969 C 293.441406 400.273438 289.570312 395.703125 283.917969 394.265625 C 278.242188 392.894531 276.542969 399.355469 270.519531 398.210938 C 264.496094 397.0625 269.28125 387.691406 260.613281 386.851562 C 251.941406 386.007812 250.148438 383.496094 249.359375 379.179688 C 248.570312 374.863281 247.054688 369.824219 238.277344 368.054688 C 229.4375 366.265625 230.101562 355.816406 232.332031 351.730469 C 234.5625 347.644531 221.34375 343.046875 220.546875 337.488281 C 219.773438 331.867188 230.929688 326.160156 230.574219 322.398438 C 230.160156 318.617188 220.609375 315.007812 222.238281 310.863281 C 223.851562 306.78125 229.519531 307.121094 230.382812 302.796875 C 231 298.59375 223.625 285.378906 230.984375 284.347656 C 238.277344 283.292969 245.160156 286.644531 247.707031 280.117188 C 250.296875 273.671875 245.359375 263.316406 252.175781 261.832031 C 258.992188 260.347656 264.144531 264.578125 267.660156 260.773438 C 271.171875 256.96875 270.972656 250.851562 275.300781 251.507812 C 279.625 252.167969 285.226562 255.238281 289.976562 250.804688 C 294.789062 246.394531 295.550781 245.335938 298.71875 246.164062 C 302.882812 247.320312 307.367188 243.078125 316.042969 245.570312 Z M 316.042969 245.570312 " clip-rule="evenodd"/></clipPath><clipPath id="a602a2e477"><path d="M 236 262 L 360 262 L 360 387 L 236 387 Z M 236 262 " clip-rule="nonzero"/></clipPath><clipPath id="5d74cb4fb3"><path d="M 220.601562 164.644531 L 448.695312 239.253906 L 368.953125 483.027344 L 140.863281 408.417969 Z M 220.601562 164.644531 " clip-rule="nonzero"/></clipPath><clipPath id="17d52d0cca"><path d="M 220.601562 164.644531 L 448.695312 239.253906 L 368.953125 483.027344 L 140.863281 408.417969 Z M 220.601562 164.644531 " clip-rule="nonzero"/></clipPath><clipPath id="516cb5974a"><path d="M 281.453125 386.238281 C 278.738281 385.488281 276.105469 383.867188 274.515625 380.734375 C 270.5 372.816406 262.699219 375.835938 258.238281 373.070312 C 253.734375 370.222656 253.289062 364.433594 253.480469 361.332031 C 253.667969 358.226562 244.171875 357.390625 243.304688 353.738281 C 242.433594 350.082031 251.5 340.457031 247.140625 337.378906 C 242.800781 334.238281 237.917969 333.605469 237.695312 330.917969 C 237.472656 328.230469 241.515625 326.390625 239.972656 323.957031 C 238.429688 321.527344 235.796875 320.320312 236.398438 317.421875 C 237.003906 314.523438 245.738281 315.796875 245.296875 310.839844 C 244.855469 305.878906 235.507812 302.0625 240.644531 296.246094 C 245.78125 290.425781 250.742188 297.347656 254.425781 290.5 C 258.109375 283.65625 253.609375 277.644531 256.527344 274.402344 C 259.445312 271.160156 266.316406 275.609375 270.402344 274.46875 C 274.429688 273.308594 273.398438 266.78125 278.191406 266.007812 C 282.921875 265.214844 290.304688 272.515625 295.152344 266.535156 C 300 260.550781 303.101562 264.316406 307.699219 265.410156 C 312.335938 266.582031 313.671875 261.238281 318.578125 262.226562 C 323.503906 263.148438 319.617188 270.820312 326.632812 271.464844 C 333.6875 272.191406 335.167969 274.1875 335.746094 277.679688 C 336.386719 281.191406 337.605469 285.238281 344.75 286.746094 C 351.914062 288.195312 351.402344 296.699219 349.558594 300.015625 C 347.71875 303.335938 358.46875 307.058594 359.117188 311.605469 C 359.761719 316.152344 350.667969 320.8125 350.976562 323.871094 C 351.28125 326.929688 359.054688 329.886719 357.75 333.242188 C 356.464844 336.539062 351.789062 336.316406 351.128906 339.816406 C 350.402344 343.292969 356.398438 353.992188 350.46875 354.871094 C 344.539062 355.753906 338.960938 353.035156 336.902344 358.277344 C 334.839844 363.519531 338.839844 371.914062 333.28125 373.125 C 327.726562 374.335938 323.550781 370.90625 320.734375 374.042969 C 317.859375 377.160156 318.03125 382.101562 314.554688 381.585938 C 311.078125 381.066406 306.515625 378.609375 302.605469 382.148438 C 298.757812 385.707031 298.058594 386.578125 295.511719 385.949219 C 292.15625 384.851562 288.496094 388.265625 281.453125 386.238281 Z M 281.453125 386.238281 " clip-rule="evenodd"/></clipPath><clipPath id="1ac083eab1"><path d="M 180 201 L 409 201 L 409 446 L 180 446 Z M 180 201 " clip-rule="nonzero"/></clipPath><clipPath id="e18196e3ab"><path d="M 220.601562 164.644531 L 448.695312 239.253906 L 368.953125 483.027344 L 140.863281 408.417969 Z M 220.601562 164.644531 " clip-rule="nonzero"/></clipPath><clipPath id="ae1fb21ad0"><path d="M 220.601562 164.644531 L 448.695312 239.253906 L 368.953125 483.027344 L 140.863281 408.417969 Z M 220.601562 164.644531 " clip-rule="nonzero"/></clipPath><clipPath id="e0269db2e8"><path d="M 274 303 L 315 303 L 315 345 L 274 345 Z M 274 303 " clip-rule="nonzero"/></clipPath><clipPath id="1c4ea60a3a"><path d="M 220.601562 164.644531 L 448.695312 239.253906 L 368.953125 483.027344 L 140.863281 408.417969 Z M 220.601562 164.644531 " clip-rule="nonzero"/></clipPath><clipPath id="cb2547277b"><path d="M 220.601562 164.644531 L 448.695312 239.253906 L 368.953125 483.027344 L 140.863281 408.417969 Z M 220.601562 164.644531 " clip-rule="nonzero"/></clipPath><clipPath id="95e0694684"><path d="M 281 310 L 308 310 L 308 338 L 281 338 Z M 281 310 " clip-rule="nonzero"/></clipPath><clipPath id="b6724a6bb4"><path d="M 220.601562 164.644531 L 448.695312 239.253906 L 368.953125 483.027344 L 140.863281 408.417969 Z M 220.601562 164.644531 " clip-rule="nonzero"/></clipPath><clipPath id="da2210aa40"><path d="M 220.601562 164.644531 L 448.695312 239.253906 L 368.953125 483.027344 L 140.863281 408.417969 Z M 220.601562 164.644531 " clip-rule="nonzero"/></clipPath><clipPath id="84a519854d"><path d="M 202 225 L 387 225 L 387 423 L 202 423 Z M 202 225 " clip-rule="nonzero"/></clipPath><clipPath id="b0baa7a310"><path d="M 220.601562 164.644531 L 448.695312 239.253906 L 368.953125 483.027344 L 140.863281 408.417969 Z M 220.601562 164.644531 " clip-rule="nonzero"/></clipPath><clipPath id="bfa872ea33"><path d="M 220.601562 164.644531 L 448.695312 239.253906 L 368.953125 483.027344 L 140.863281 408.417969 Z M 220.601562 164.644531 " clip-rule="nonzero"/></clipPath><clipPath id="7077956da2"><path d="M 245 271 L 344 271 L 344 377 L 245 377 Z M 245 271 " clip-rule="nonzero"/></clipPath><clipPath id="f9316afe16"><path d="M 220.601562 164.644531 L 448.695312 239.253906 L 368.953125 483.027344 L 140.863281 408.417969 Z M 220.601562 164.644531 " clip-rule="nonzero"/></clipPath><clipPath id="03ad6b3425"><path d="M 220.601562 164.644531 L 448.695312 239.253906 L 368.953125 483.027344 L 140.863281 408.417969 Z M 220.601562 164.644531 " clip-rule="nonzero"/></clipPath><clipPath id="6ba422daef"><path d="M 285 314 L 305 314 L 305 334 L 285 334 Z M 285 314 " clip-rule="nonzero"/></clipPath><clipPath id="fac0149557"><path d="M 220.601562 164.644531 L 448.695312 239.253906 L 368.953125 483.027344 L 140.863281 408.417969 Z M 220.601562 164.644531 " clip-rule="nonzero"/></clipPath><clipPath id="a281d80c32"><path d="M 220.601562 164.644531 L 448.695312 239.253906 L 368.953125 483.027344 L 140.863281 408.417969 Z M 220.601562 164.644531 " clip-rule="nonzero"/></clipPath><clipPath id="9a087a4653"><path d="M 287 304 L 302 304 L 302 344 L 287 344 Z M 287 304 " clip-rule="nonzero"/></clipPath><clipPath id="ad814d0770"><path d="M 220.601562 164.644531 L 448.695312 239.253906 L 368.953125 483.027344 L 140.863281 408.417969 Z M 220.601562 164.644531 " clip-rule="nonzero"/></clipPath><clipPath id="4b3ecc9b4b"><path d="M 220.601562 164.644531 L 448.695312 239.253906 L 368.953125 483.027344 L 140.863281 408.417969 Z M 220.601562 164.644531 " clip-rule="nonzero"/></clipPath><clipPath id="e364e10397"><path d="M 275 316 L 314 316 L 314 332 L 275 332 Z M 275 316 " clip-rule="nonzero"/></clipPath><clipPath id="a1d3e599b2"><path d="M 220.601562 164.644531 L 448.695312 239.253906 L 368.953125 483.027344 L 140.863281 408.417969 Z M 220.601562 164.644531 " clip-rule="nonzero"/></clipPath><clipPath id="c06d30f4cd"><path d="M 220.601562 164.644531 L 448.695312 239.253906 L 368.953125 483.027344 L 140.863281 408.417969 Z M 220.601562 164.644531 " clip-rule="nonzero"/></clipPath><clipPath id="edbe30ddaf"><path d="M 256 285 L 334 285 L 334 363 L 256 363 Z M 256 285 " clip-rule="nonzero"/></clipPath><clipPath id="1ca66a9c59"><path d="M 220.601562 164.644531 L 448.695312 239.253906 L 368.953125 483.027344 L 140.863281 408.417969 Z M 220.601562 164.644531 " clip-rule="nonzero"/></clipPath><clipPath id="ca1f579154"><path d="M 220.601562 164.644531 L 448.695312 239.253906 L 368.953125 483.027344 L 140.863281 408.417969 Z M 220.601562 164.644531 " clip-rule="nonzero"/></clipPath><clipPath id="970f97d81c"><path d="M 209 234 L 382 234 L 382 409 L 209 409 Z M 209 234 " clip-rule="nonzero"/></clipPath><clipPath id="7703250fbc"><path d="M 220.601562 164.644531 L 448.695312 239.253906 L 368.953125 483.027344 L 140.863281 408.417969 Z M 220.601562 164.644531 " clip-rule="nonzero"/></clipPath><clipPath id="c1283ff1ec"><path d="M 220.601562 164.644531 L 448.695312 239.253906 L 368.953125 483.027344 L 140.863281 408.417969 Z M 220.601562 164.644531 " clip-rule="nonzero"/></clipPath><clipPath id="c459437d5c"><path d="M 318.714844 235.09375 C 320.847656 235.722656 322.941406 236.683594 324.875 238.140625 C 326.453125 239.414062 327.910156 241.058594 328.996094 243.203125 C 332.34375 249.800781 337.824219 250.496094 342.832031 251.171875 C 345.875 251.546875 348.773438 251.941406 351.160156 253.480469 C 353.898438 255.203125 355.628906 257.695312 356.699219 260.316406 C 358.167969 264.027344 358.375 268.019531 358.140625 270.625 C 358.027344 272.03125 360.867188 273.238281 363.890625 274.5 C 367.582031 276.050781 371.4375 277.726562 372.15625 280.78125 C 372.75 283.179688 370.886719 286.765625 368.902344 290.519531 C 366.324219 295.457031 363.625 300.765625 366.46875 302.796875 C 368.753906 304.4375 371.136719 305.5625 373.230469 306.523438 C 376.859375 308.257812 379.722656 309.609375 379.945312 312.5 C 380.101562 314.546875 378.953125 316.167969 377.84375 317.664062 C 376.839844 319.054688 375.851562 320.382812 376.6875 321.617188 C 377.335938 322.585938 378.082031 323.453125 378.851562 324.253906 C 380.726562 326.3125 382.453125 328.183594 381.808594 331.414062 C 381.324219 333.730469 378.683594 334.449219 375.792969 335.292969 C 372.695312 336.136719 369.269531 337.148438 369.511719 340.1875 C 369.734375 342.460938 371.625 344.664062 373.5 346.925781 C 377.058594 351.1875 380.683594 355.46875 375.667969 361.121094 C 371.929688 365.402344 368.308594 365.113281 364.9375 364.902344 C 361.894531 364.734375 359.144531 364.523438 356.75 368.898438 C 354.128906 373.753906 354.632812 378.320312 355.085938 382.183594 C 355.523438 385.902344 355.828125 388.960938 353.652344 391.414062 C 350.9375 394.449219 346.464844 393.398438 341.972656 392.410156 C 339.03125 391.722656 336.09375 391.039062 333.964844 391.648438 C 331.757812 392.304688 330.777344 394.457031 329.773438 396.675781 C 328.449219 399.683594 327.121094 402.6875 323.113281 403.375 C 320.425781 403.800781 317.421875 402.679688 314.25 401.4375 C 309.359375 399.5625 304.097656 397.566406 300.296875 402.238281 C 294.734375 409.15625 290.671875 407.484375 285.988281 405.609375 C 284.722656 405.058594 283.3125 404.527344 281.925781 404.140625 C 279.191406 403.453125 277.316406 404.765625 275.382812 406.058594 C 273.074219 407.644531 270.746094 409.292969 266.9375 408.527344 C 263.253906 407.804688 262.574219 405.035156 261.898438 402.0625 C 261.238281 399.234375 260.519531 396.175781 255.90625 395.769531 C 250.835938 395.28125 247.730469 394.261719 245.757812 392.722656 C 243.679688 391.082031 242.839844 389.019531 242.410156 386.332031 C 241.984375 384.058594 241.433594 381.539062 239.769531 379.480469 C 238.121094 377.359375 235.382812 375.640625 230.746094 374.671875 C 229.460938 374.390625 228.34375 374.023438 227.367188 373.429688 C 224.566406 371.894531 222.980469 369.382812 222.222656 366.65625 C 221.503906 364.011719 221.550781 361.136719 222.011719 358.675781 C 222.292969 357.183594 222.800781 355.835938 223.355469 354.78125 C 224.214844 353.203125 221.246094 350.925781 217.921875 348.460938 C 214.328125 345.773438 210.46875 342.859375 210.011719 339.40625 C 209.453125 335.441406 213.300781 331.675781 216.734375 328.328125 C 219.160156 325.957031 221.382812 323.792969 221.269531 322.449219 C 221.117188 321.023438 219.0625 319.320312 216.960938 317.53125 C 213.824219 314.921875 210.625 312.292969 211.972656 309.019531 C 212.929688 306.511719 215.03125 305.34375 217.054688 304.214844 C 218.910156 303.171875 220.679688 302.167969 221.082031 300.097656 C 221.34375 298.667969 220.644531 295.964844 219.925781 293.113281 C 219.359375 291.070312 218.828125 288.902344 218.527344 286.878906 C 217.925781 282.621094 218.523438 279.101562 222.863281 278.457031 C 225.53125 278.089844 228.113281 278.179688 230.492188 278.269531 C 235.230469 278.511719 239.097656 278.675781 240.851562 274.367188 C 241.933594 271.691406 241.726562 268.320312 241.605469 265.117188 C 241.367188 259.535156 241.09375 254.492188 246.585938 253.261719 C 250.078125 252.476562 253.140625 252.996094 255.890625 253.417969 C 259.019531 253.957031 261.585938 254.316406 263.414062 252.296875 C 264.8125 250.761719 265.730469 248.789062 266.507812 247.050781 C 267.996094 243.753906 269.179688 240.976562 272.96875 241.59375 C 274.085938 241.753906 275.226562 242.058594 276.363281 242.363281 C 280.300781 243.375 284.792969 244.570312 288.621094 241.074219 L 289.894531 239.90625 C 294.523438 235.644531 295.632812 234.5625 299.425781 235.59375 C 301.0625 236.0625 302.941406 235.574219 305.109375 235.046875 C 308.351562 234.386719 312.605469 233.371094 318.714844 235.09375 Z M 323.578125 239.78125 C 321.9375 238.488281 320.011719 237.648438 318.125 237.101562 C 312.597656 235.5 308.632812 236.472656 305.347656 237.257812 C 302.890625 237.828125 300.785156 238.378906 298.652344 237.75 C 295.9375 237 295.011719 237.933594 291.0625 241.597656 L 289.785156 242.761719 C 285.160156 247.027344 280.085938 245.710938 275.652344 244.539062 C 274.511719 244.234375 273.4375 243.949219 272.445312 243.832031 C 270.289062 243.472656 269.332031 245.566406 268.226562 248.09375 C 267.390625 250.023438 266.429688 252.117188 264.808594 253.925781 C 262.21875 256.792969 259.15625 256.273438 255.429688 255.671875 C 252.882812 255.253906 250.070312 254.8125 246.886719 255.492188 C 243.109375 256.320312 243.296875 260.578125 243.488281 265.25 C 243.675781 268.683594 243.859375 272.320312 242.59375 275.347656 C 240.332031 281.007812 235.78125 280.824219 230.21875 280.585938 C 227.921875 280.457031 225.460938 280.40625 222.960938 280.691406 C 220.210938 281.097656 219.914062 283.683594 220.347656 286.785156 C 220.625 288.664062 221.175781 290.769531 221.683594 292.792969 C 222.507812 295.953125 223.289062 298.824219 222.867188 300.75 C 222.242188 303.710938 220.035156 304.984375 217.828125 306.257812 C 216.140625 307.21875 214.386719 308.160156 213.632812 310.042969 C 212.878906 311.929688 215.476562 314.085938 218.070312 316.242188 C 220.503906 318.277344 222.828125 320.207031 223.113281 322.5 C 223.371094 324.859375 220.824219 327.394531 218.003906 330.121094 C 214.898438 333.09375 211.464844 336.441406 211.9375 339.417969 C 212.324219 342.019531 215.792969 344.667969 219.050781 347.113281 C 223.082031 350.148438 226.777344 352.941406 225.058594 356.09375 C 224.566406 356.964844 224.199219 358.082031 223.917969 359.367188 C 223.496094 361.5 223.40625 364.085938 224.101562 366.375 C 224.734375 368.648438 226.007812 370.644531 228.226562 371.855469 C 229.035156 372.324219 229.96875 372.628906 231.066406 372.851562 C 236.28125 373.9375 239.394531 375.988281 241.292969 378.398438 C 243.1875 380.804688 243.863281 383.574219 244.332031 386.136719 C 244.71875 388.324219 245.328125 390.039062 246.925781 391.25 C 248.628906 392.5625 251.382812 393.394531 256.039062 393.886719 C 262.101562 394.492188 263.011719 398.230469 263.839844 401.804688 C 264.390625 404.117188 264.855469 406.265625 267.320312 406.726562 C 270.300781 407.289062 272.257812 405.933594 274.214844 404.578125 C 276.523438 402.992188 278.765625 401.390625 282.453125 402.320312 C 284.046875 402.703125 285.4375 403.296875 286.824219 403.886719 C 290.761719 405.519531 294.160156 406.90625 298.78125 401.195312 C 303.507812 395.378906 309.496094 397.679688 315.070312 399.777344 C 317.949219 400.859375 320.707031 401.898438 322.8125 401.554688 C 325.726562 401.0625 326.828125 398.535156 327.972656 396.085938 C 329.179688 393.453125 330.320312 390.800781 333.4375 389.894531 C 336.101562 389.113281 339.289062 389.882812 342.417969 390.628906 C 346.308594 391.558594 350.160156 392.40625 352.09375 390.285156 C 353.632812 388.519531 353.328125 385.875 353 382.671875 C 352.503906 378.519531 351.980469 373.597656 354.925781 368.164062 C 357.894531 362.667969 361.328125 362.898438 365.050781 363.082031 C 367.945312 363.273438 371.050781 363.460938 374.113281 359.992188 C 377.933594 355.667969 374.914062 352.066406 371.894531 348.464844 C 369.8125 345.996094 367.691406 343.445312 367.449219 340.613281 C 367.007812 335.859375 371.320312 334.65625 375.203125 333.515625 C 377.472656 332.882812 379.519531 332.3125 379.738281 331.21875 C 380.203125 328.960938 378.828125 327.480469 377.289062 325.875 C 376.480469 324.992188 375.605469 324.085938 374.9375 322.972656 C 373.394531 320.542969 374.769531 318.652344 376.183594 316.636719 C 377.066406 315.414062 378.03125 314.144531 377.921875 312.800781 C 377.785156 311.109375 375.464844 310.003906 372.417969 308.59375 C 370.28125 307.550781 367.773438 306.386719 365.363281 304.703125 C 361.066406 301.648438 364.257812 295.46875 367.203125 289.828125 C 368.941406 286.40625 370.621094 283.167969 370.277344 281.476562 C 369.773438 279.453125 366.394531 278.003906 363.199219 276.613281 C 359.511719 275.0625 356.027344 273.511719 356.199219 270.679688 C 356.371094 268.257812 356.183594 264.617188 354.863281 261.296875 C 353.960938 259.007812 352.460938 256.863281 350.117188 255.410156 C 348.125 254.140625 345.414062 253.800781 342.640625 253.445312 C 337.09375 252.734375 331.03125 251.917969 327.226562 244.414062 C 326.199219 242.289062 324.949219 240.847656 323.578125 239.78125 Z M 323.578125 239.78125 " clip-rule="nonzero"/></clipPath><clipPath id="79aef4e0ee"><path d="M 0 0.0234375 L 1874.761719 0.0234375 L 1874.761719 749.976562 L 0 749.976562 Z M 0 0.0234375 " clip-rule="nonzero"/></clipPath><clipPath id="a8d6d0d5ab"><path d="M 0 0.0234375 L 1874.761719 0.0234375 L 1874.761719 749.976562 L 0 749.976562 Z M 0 0.0234375 " clip-rule="nonzero"/></clipPath><clipPath id="cc0a1a0800"><path d="M 0 0.0234375 L 1874.761719 0.0234375 L 1874.761719 749.976562 L 0 749.976562 Z M 0 0.0234375 " clip-rule="nonzero"/></clipPath><clipPath id="1c482b5a66"><path d="M 0 0.0234375 L 1874.761719 0.0234375 L 1874.761719 749.976562 L 0 749.976562 Z M 0 0.0234375 " clip-rule="nonzero"/></clipPath><linearGradient x1="-200.744008" gradientTransform="matrix(1.328862, 0, 0, 1.329205, 266.760992, 217.449814)" y1="133.5" x2="1210.057549" gradientUnits="userSpaceOnUse" y2="133.5" id="2295001ac8"><stop stop-opacity="1" stop-color="rgb(0.779724%, 0%, 41.958618%)" offset="0"/><stop stop-opacity="1" stop-color="rgb(0.779724%, 0%, 41.958618%)" offset="0.25"/><stop stop-opacity="1" stop-color="rgb(0.85144%, 0.0701904%, 42.105103%)" offset="0.257812"/><stop stop-opacity="1" stop-color="rgb(1.052856%, 0.273132%, 42.51709%)" offset="0.261719"/><stop stop-opacity="1" stop-color="rgb(1.184082%, 0.404358%, 42.784119%)" offset="0.265625"/><stop stop-opacity="1" stop-color="rgb(1.315308%, 0.534058%, 43.049622%)" offset="0.269531"/><stop stop-opacity="1" stop-color="rgb(1.446533%, 0.665283%, 43.31665%)" offset="0.273438"/><stop stop-opacity="1" stop-color="rgb(1.576233%, 0.796509%, 43.582153%)" offset="0.277344"/><stop stop-opacity="1" stop-color="rgb(1.707458%, 0.927734%, 43.849182%)" offset="0.28125"/><stop stop-opacity="1" stop-color="rgb(1.838684%, 1.057434%, 44.114685%)" offset="0.285156"/><stop stop-opacity="1" stop-color="rgb(1.96991%, 1.18866%, 44.381714%)" offset="0.289062"/><stop stop-opacity="1" stop-color="rgb(2.099609%, 1.318359%, 44.647217%)" offset="0.292969"/><stop stop-opacity="1" stop-color="rgb(2.230835%, 1.449585%, 44.91272%)" offset="0.296875"/><stop stop-opacity="1" stop-color="rgb(2.362061%, 1.580811%, 45.178223%)" offset="0.300781"/><stop stop-opacity="1" stop-color="rgb(2.493286%, 1.712036%, 45.445251%)" offset="0.304688"/><stop stop-opacity="1" stop-color="rgb(2.622986%, 1.841736%, 45.710754%)" offset="0.308594"/><stop stop-opacity="1" stop-color="rgb(2.754211%, 1.972961%, 45.977783%)" offset="0.3125"/><stop stop-opacity="1" stop-color="rgb(2.883911%, 2.104187%, 46.243286%)" offset="0.316406"/><stop stop-opacity="1" stop-color="rgb(3.015137%, 2.235413%, 46.510315%)" offset="0.320312"/><stop stop-opacity="1" stop-color="rgb(3.146362%, 2.365112%, 46.775818%)" offset="0.324219"/><stop stop-opacity="1" stop-color="rgb(3.277588%, 2.496338%, 47.042847%)" offset="0.328125"/><stop stop-opacity="1" stop-color="rgb(3.407288%, 2.626038%, 47.30835%)" offset="0.332031"/><stop stop-opacity="1" stop-color="rgb(3.538513%, 2.757263%, 47.575378%)" offset="0.335937"/><stop stop-opacity="1" stop-color="rgb(3.669739%, 2.888489%, 47.840881%)" offset="0.339844"/><stop stop-opacity="1" stop-color="rgb(3.800964%, 3.019714%, 48.10791%)" offset="0.34375"/><stop stop-opacity="1" stop-color="rgb(3.930664%, 3.149414%, 48.373413%)" offset="0.347656"/><stop stop-opacity="1" stop-color="rgb(4.06189%, 3.28064%, 48.640442%)" offset="0.351562"/><stop stop-opacity="1" stop-color="rgb(4.193115%, 3.411865%, 48.905945%)" offset="0.355469"/><stop stop-opacity="1" stop-color="rgb(4.324341%, 3.543091%, 49.172974%)" offset="0.359375"/><stop stop-opacity="1" stop-color="rgb(4.454041%, 3.672791%, 49.438477%)" offset="0.363281"/><stop stop-opacity="1" stop-color="rgb(4.585266%, 3.804016%, 49.705505%)" offset="0.367188"/><stop stop-opacity="1" stop-color="rgb(4.716492%, 3.933716%, 49.971008%)" offset="0.371094"/><stop stop-opacity="1" stop-color="rgb(4.847717%, 4.064941%, 50.238037%)" offset="0.375"/><stop stop-opacity="1" stop-color="rgb(4.977417%, 4.196167%, 50.50354%)" offset="0.378906"/><stop stop-opacity="1" stop-color="rgb(5.108643%, 4.327393%, 50.770569%)" offset="0.382812"/><stop stop-opacity="1" stop-color="rgb(5.239868%, 4.457092%, 51.036072%)" offset="0.386719"/><stop stop-opacity="1" stop-color="rgb(5.371094%, 4.588318%, 51.303101%)" offset="0.390625"/><stop stop-opacity="1" stop-color="rgb(5.500793%, 4.719543%, 51.568604%)" offset="0.394531"/><stop stop-opacity="1" stop-color="rgb(5.632019%, 4.850769%, 51.835632%)" offset="0.398438"/><stop stop-opacity="1" stop-color="rgb(5.763245%, 4.980469%, 52.101135%)" offset="0.402344"/><stop stop-opacity="1" stop-color="rgb(5.89447%, 5.111694%, 52.368164%)" offset="0.40625"/><stop stop-opacity="1" stop-color="rgb(6.02417%, 5.241394%, 52.633667%)" offset="0.410156"/><stop stop-opacity="1" stop-color="rgb(6.155396%, 5.37262%, 52.900696%)" offset="0.414062"/><stop stop-opacity="1" stop-color="rgb(6.286621%, 5.503845%, 53.166199%)" offset="0.417969"/><stop stop-opacity="1" stop-color="rgb(6.417847%, 5.635071%, 53.433228%)" offset="0.421875"/><stop stop-opacity="1" stop-color="rgb(6.547546%, 5.764771%, 53.69873%)" offset="0.425781"/><stop stop-opacity="1" stop-color="rgb(6.678772%, 5.895996%, 53.965759%)" offset="0.429687"/><stop stop-opacity="1" stop-color="rgb(6.809998%, 6.027222%, 54.231262%)" offset="0.433594"/><stop stop-opacity="1" stop-color="rgb(6.941223%, 6.158447%, 54.498291%)" offset="0.4375"/><stop stop-opacity="1" stop-color="rgb(7.070923%, 6.288147%, 54.763794%)" offset="0.441406"/><stop stop-opacity="1" stop-color="rgb(7.202148%, 6.419373%, 55.030823%)" offset="0.445312"/><stop stop-opacity="1" stop-color="rgb(7.333374%, 6.549072%, 55.296326%)" offset="0.449219"/><stop stop-opacity="1" stop-color="rgb(7.4646%, 6.680298%, 55.563354%)" offset="0.453125"/><stop stop-opacity="1" stop-color="rgb(7.594299%, 6.811523%, 55.828857%)" offset="0.457031"/><stop stop-opacity="1" stop-color="rgb(7.725525%, 6.942749%, 56.095886%)" offset="0.460937"/><stop stop-opacity="1" stop-color="rgb(7.85675%, 7.072449%, 56.361389%)" offset="0.464844"/><stop stop-opacity="1" stop-color="rgb(7.987976%, 7.203674%, 56.628418%)" offset="0.46875"/><stop stop-opacity="1" stop-color="rgb(8.117676%, 7.3349%, 56.893921%)" offset="0.472656"/><stop stop-opacity="1" stop-color="rgb(8.248901%, 7.466125%, 57.16095%)" offset="0.476562"/><stop stop-opacity="1" stop-color="rgb(8.380127%, 7.595825%, 57.426453%)" offset="0.480469"/><stop stop-opacity="1" stop-color="rgb(8.511353%, 7.727051%, 57.693481%)" offset="0.484375"/><stop stop-opacity="1" stop-color="rgb(8.641052%, 7.85675%, 57.958984%)" offset="0.488281"/><stop stop-opacity="1" stop-color="rgb(8.772278%, 7.987976%, 58.226013%)" offset="0.492188"/><stop stop-opacity="1" stop-color="rgb(8.903503%, 8.119202%, 58.491516%)" offset="0.496094"/><stop stop-opacity="1" stop-color="rgb(9.034729%, 8.250427%, 58.758545%)" offset="0.5"/><stop stop-opacity="1" stop-color="rgb(9.164429%, 8.380127%, 59.024048%)" offset="0.503906"/><stop stop-opacity="1" stop-color="rgb(9.295654%, 8.511353%, 59.291077%)" offset="0.507812"/><stop stop-opacity="1" stop-color="rgb(9.425354%, 8.642578%, 59.55658%)" offset="0.511719"/><stop stop-opacity="1" stop-color="rgb(9.55658%, 8.773804%, 59.823608%)" offset="0.515625"/><stop stop-opacity="1" stop-color="rgb(9.687805%, 8.903503%, 60.089111%)" offset="0.519531"/><stop stop-opacity="1" stop-color="rgb(9.819031%, 9.034729%, 60.35614%)" offset="0.523437"/><stop stop-opacity="1" stop-color="rgb(9.94873%, 9.164429%, 60.621643%)" offset="0.527344"/><stop stop-opacity="1" stop-color="rgb(10.079956%, 9.295654%, 60.888672%)" offset="0.53125"/><stop stop-opacity="1" stop-color="rgb(10.211182%, 9.42688%, 61.154175%)" offset="0.535156"/><stop stop-opacity="1" stop-color="rgb(10.342407%, 9.558105%, 61.421204%)" offset="0.539062"/><stop stop-opacity="1" stop-color="rgb(10.472107%, 9.687805%, 61.686707%)" offset="0.542969"/><stop stop-opacity="1" stop-color="rgb(10.603333%, 9.819031%, 61.952209%)" offset="0.546875"/><stop stop-opacity="1" stop-color="rgb(10.734558%, 9.950256%, 62.217712%)" offset="0.550781"/><stop stop-opacity="1" stop-color="rgb(10.865784%, 10.081482%, 62.484741%)" offset="0.554687"/><stop stop-opacity="1" stop-color="rgb(10.995483%, 10.211182%, 62.750244%)" offset="0.558594"/><stop stop-opacity="1" stop-color="rgb(11.126709%, 10.342407%, 63.017273%)" offset="0.5625"/><stop stop-opacity="1" stop-color="rgb(11.257935%, 10.472107%, 63.282776%)" offset="0.566406"/><stop stop-opacity="1" stop-color="rgb(11.38916%, 10.603333%, 63.549805%)" offset="0.570312"/><stop stop-opacity="1" stop-color="rgb(11.51886%, 10.734558%, 63.815308%)" offset="0.574219"/><stop stop-opacity="1" stop-color="rgb(11.650085%, 10.865784%, 64.082336%)" offset="0.578125"/><stop stop-opacity="1" stop-color="rgb(11.781311%, 10.995483%, 64.347839%)" offset="0.582031"/><stop stop-opacity="1" stop-color="rgb(11.912537%, 11.126709%, 64.614868%)" offset="0.585937"/><stop stop-opacity="1" stop-color="rgb(12.042236%, 11.257935%, 64.880371%)" offset="0.589844"/><stop stop-opacity="1" stop-color="rgb(12.173462%, 11.38916%, 65.1474%)" offset="0.59375"/><stop stop-opacity="1" stop-color="rgb(12.304688%, 11.51886%, 65.412903%)" offset="0.597656"/><stop stop-opacity="1" stop-color="rgb(12.435913%, 11.650085%, 65.679932%)" offset="0.601562"/><stop stop-opacity="1" stop-color="rgb(12.565613%, 11.779785%, 65.945435%)" offset="0.605469"/><stop stop-opacity="1" stop-color="rgb(12.696838%, 11.911011%, 66.212463%)" offset="0.609375"/><stop stop-opacity="1" stop-color="rgb(12.828064%, 12.042236%, 66.477966%)" offset="0.613281"/><stop stop-opacity="1" stop-color="rgb(12.95929%, 12.173462%, 66.744995%)" offset="0.617188"/><stop stop-opacity="1" stop-color="rgb(13.088989%, 12.303162%, 67.010498%)" offset="0.621094"/><stop stop-opacity="1" stop-color="rgb(13.220215%, 12.434387%, 67.277527%)" offset="0.625"/><stop stop-opacity="1" stop-color="rgb(13.35144%, 12.565613%, 67.54303%)" offset="0.628906"/><stop stop-opacity="1" stop-color="rgb(13.482666%, 12.696838%, 67.810059%)" offset="0.632812"/><stop stop-opacity="1" stop-color="rgb(13.612366%, 12.826538%, 68.075562%)" offset="0.636719"/><stop stop-opacity="1" stop-color="rgb(13.743591%, 12.957764%, 68.34259%)" offset="0.640625"/><stop stop-opacity="1" stop-color="rgb(13.874817%, 13.087463%, 68.608093%)" offset="0.644531"/><stop stop-opacity="1" stop-color="rgb(14.006042%, 13.218689%, 68.875122%)" offset="0.648437"/><stop stop-opacity="1" stop-color="rgb(14.135742%, 13.349915%, 69.140625%)" offset="0.652344"/><stop stop-opacity="1" stop-color="rgb(14.266968%, 13.48114%, 69.407654%)" offset="0.65625"/><stop stop-opacity="1" stop-color="rgb(14.398193%, 13.61084%, 69.673157%)" offset="0.660156"/><stop stop-opacity="1" stop-color="rgb(14.529419%, 13.742065%, 69.940186%)" offset="0.664062"/><stop stop-opacity="1" stop-color="rgb(14.659119%, 13.873291%, 70.205688%)" offset="0.667969"/><stop stop-opacity="1" stop-color="rgb(14.790344%, 14.004517%, 70.472717%)" offset="0.671875"/><stop stop-opacity="1" stop-color="rgb(14.92157%, 14.134216%, 70.73822%)" offset="0.675781"/><stop stop-opacity="1" stop-color="rgb(15.052795%, 14.265442%, 71.005249%)" offset="0.679687"/><stop stop-opacity="1" stop-color="rgb(15.182495%, 14.395142%, 71.270752%)" offset="0.683594"/><stop stop-opacity="1" stop-color="rgb(15.313721%, 14.526367%, 71.537781%)" offset="0.6875"/><stop stop-opacity="1" stop-color="rgb(15.44342%, 14.657593%, 71.803284%)" offset="0.691406"/><stop stop-opacity="1" stop-color="rgb(15.574646%, 14.788818%, 72.070312%)" offset="0.695312"/><stop stop-opacity="1" stop-color="rgb(15.705872%, 14.918518%, 72.335815%)" offset="0.699219"/><stop stop-opacity="1" stop-color="rgb(15.837097%, 15.049744%, 72.602844%)" offset="0.703125"/><stop stop-opacity="1" stop-color="rgb(15.966797%, 15.180969%, 72.868347%)" offset="0.707031"/><stop stop-opacity="1" stop-color="rgb(16.098022%, 15.312195%, 73.135376%)" offset="0.710937"/><stop stop-opacity="1" stop-color="rgb(16.229248%, 15.441895%, 73.400879%)" offset="0.714844"/><stop stop-opacity="1" stop-color="rgb(16.360474%, 15.57312%, 73.667908%)" offset="0.71875"/><stop stop-opacity="1" stop-color="rgb(16.490173%, 15.704346%, 73.933411%)" offset="0.722656"/><stop stop-opacity="1" stop-color="rgb(16.621399%, 15.835571%, 74.200439%)" offset="0.726562"/><stop stop-opacity="1" stop-color="rgb(16.752625%, 15.965271%, 74.465942%)" offset="0.730469"/><stop stop-opacity="1" stop-color="rgb(16.88385%, 16.096497%, 74.732971%)" offset="0.734375"/><stop stop-opacity="1" stop-color="rgb(17.01355%, 16.226196%, 74.998474%)" offset="0.738281"/><stop stop-opacity="1" stop-color="rgb(17.144775%, 16.357422%, 75.265503%)" offset="0.742188"/><stop stop-opacity="1" stop-color="rgb(17.276001%, 16.488647%, 75.531006%)" offset="0.746094"/><stop stop-opacity="1" stop-color="rgb(17.407227%, 16.619873%, 75.798035%)" offset="0.75"/><stop stop-opacity="1" stop-color="rgb(17.536926%, 16.749573%, 76.063538%)" offset="0.753906"/><stop stop-opacity="1" stop-color="rgb(17.668152%, 16.880798%, 76.330566%)" offset="0.757812"/><stop stop-opacity="1" stop-color="rgb(17.799377%, 17.012024%, 76.596069%)" offset="0.761719"/><stop stop-opacity="1" stop-color="rgb(17.930603%, 17.14325%, 76.863098%)" offset="0.765625"/><stop stop-opacity="1" stop-color="rgb(18.060303%, 17.272949%, 77.128601%)" offset="0.769531"/><stop stop-opacity="1" stop-color="rgb(18.191528%, 17.404175%, 77.39563%)" offset="0.773438"/><stop stop-opacity="1" stop-color="rgb(18.322754%, 17.533875%, 77.661133%)" offset="0.777344"/><stop stop-opacity="1" stop-color="rgb(18.453979%, 17.6651%, 77.928162%)" offset="0.78125"/><stop stop-opacity="1" stop-color="rgb(18.583679%, 17.796326%, 78.193665%)" offset="0.785156"/><stop stop-opacity="1" stop-color="rgb(18.714905%, 17.927551%, 78.460693%)" offset="0.789062"/><stop stop-opacity="1" stop-color="rgb(18.84613%, 18.057251%, 78.726196%)" offset="0.792969"/><stop stop-opacity="1" stop-color="rgb(18.977356%, 18.188477%, 78.991699%)" offset="0.796875"/><stop stop-opacity="1" stop-color="rgb(19.107056%, 18.319702%, 79.257202%)" offset="0.800781"/><stop stop-opacity="1" stop-color="rgb(19.238281%, 18.450928%, 79.524231%)" offset="0.804687"/><stop stop-opacity="1" stop-color="rgb(19.369507%, 18.580627%, 79.789734%)" offset="0.808594"/><stop stop-opacity="1" stop-color="rgb(19.500732%, 18.711853%, 80.056763%)" offset="0.8125"/><stop stop-opacity="1" stop-color="rgb(19.630432%, 18.841553%, 80.322266%)" offset="0.816406"/><stop stop-opacity="1" stop-color="rgb(19.761658%, 18.972778%, 80.589294%)" offset="0.820312"/><stop stop-opacity="1" stop-color="rgb(19.892883%, 19.104004%, 80.854797%)" offset="0.824219"/><stop stop-opacity="1" stop-color="rgb(20.024109%, 19.235229%, 81.121826%)" offset="0.828125"/><stop stop-opacity="1" stop-color="rgb(20.153809%, 19.364929%, 81.387329%)" offset="0.832031"/><stop stop-opacity="1" stop-color="rgb(20.285034%, 19.496155%, 81.654358%)" offset="0.835938"/><stop stop-opacity="1" stop-color="rgb(20.41626%, 19.62738%, 81.919861%)" offset="0.839844"/><stop stop-opacity="1" stop-color="rgb(20.547485%, 19.758606%, 82.18689%)" offset="0.84375"/><stop stop-opacity="1" stop-color="rgb(20.677185%, 19.888306%, 82.452393%)" offset="0.847656"/><stop stop-opacity="1" stop-color="rgb(20.808411%, 20.019531%, 82.719421%)" offset="0.851562"/><stop stop-opacity="1" stop-color="rgb(20.939636%, 20.149231%, 82.984924%)" offset="0.855469"/><stop stop-opacity="1" stop-color="rgb(21.070862%, 20.280457%, 83.251953%)" offset="0.859375"/><stop stop-opacity="1" stop-color="rgb(21.200562%, 20.411682%, 83.517456%)" offset="0.863281"/><stop stop-opacity="1" stop-color="rgb(21.331787%, 20.542908%, 83.784485%)" offset="0.867188"/><stop stop-opacity="1" stop-color="rgb(21.463013%, 20.672607%, 84.049988%)" offset="0.871094"/><stop stop-opacity="1" stop-color="rgb(21.594238%, 20.803833%, 84.317017%)" offset="0.875"/><stop stop-opacity="1" stop-color="rgb(21.723938%, 20.935059%, 84.58252%)" offset="0.878906"/><stop stop-opacity="1" stop-color="rgb(21.855164%, 21.066284%, 84.849548%)" offset="0.882812"/><stop stop-opacity="1" stop-color="rgb(21.984863%, 21.195984%, 85.115051%)" offset="0.886719"/><stop stop-opacity="1" stop-color="rgb(22.116089%, 21.327209%, 85.38208%)" offset="0.890625"/><stop stop-opacity="1" stop-color="rgb(22.247314%, 21.456909%, 85.647583%)" offset="0.894531"/><stop stop-opacity="1" stop-color="rgb(22.37854%, 21.588135%, 85.914612%)" offset="0.898437"/><stop stop-opacity="1" stop-color="rgb(22.50824%, 21.71936%, 86.180115%)" offset="0.902344"/><stop stop-opacity="1" stop-color="rgb(22.639465%, 21.850586%, 86.447144%)" offset="0.90625"/><stop stop-opacity="1" stop-color="rgb(22.694397%, 21.903992%, 86.558533%)" offset="0.9375"/><stop stop-opacity="1" stop-color="rgb(22.749329%, 21.958923%, 86.669922%)" offset="1"/></linearGradient><clipPath id="38472952c6"><rect x="0" width="1875" y="0" height="750"/></clipPath><clipPath id="984683bd3e"><path d="M 0 0.0234375 L 1874.761719 0.0234375 L 1874.761719 749.976562 L 0 749.976562 Z M 0 0.0234375 " clip-rule="nonzero"/></clipPath><clipPath id="01f194b6bf"><rect x="0" width="1875" y="0" height="750"/></clipPath><clipPath id="bf839d87d2"><rect x="0" width="1875" y="0" height="750"/></clipPath><mask id="530278f44a"><g filter="url(#058121b8f2)"><g transform="matrix(1, 0, 0, 1, 0, -0.000000000000087524)"><g clip-path="url(#bf839d87d2)"><g clip-path="url(#984683bd3e)"><g transform="matrix(1, 0, 0, 1, 0, -0.000000000000087524)"><g clip-path="url(#01f194b6bf)"><g fill="#000000" fill-opacity="1"><g transform="translate(475.361978, 436.76899)"><g><path d="M 240.664062 -29.859375 L 285.578125 -140.367188 L 288.386719 -147.257812 C 289.664062 -150.320312 290.429688 -153.636719 290.429688 -156.699219 C 290.429688 -164.867188 282.261719 -171.757812 272.5625 -171.757812 C 265.164062 -171.757812 258.273438 -168.183594 249.59375 -159.761719 L 212.078125 -123.011719 L 204.421875 -151.59375 C 200.59375 -166.652344 195.746094 -171.757812 186.558594 -171.757812 C 178.648438 -171.757812 173.796875 -167.417969 168.949219 -155.933594 L 119.4375 -33.941406 C 116.375 -26.285156 112.800781 -18.375 109.484375 -11.484375 C 103.613281 0 99.277344 6.890625 94.9375 11.738281 C 86.769531 20.417969 78.859375 24.5 69.417969 24.5 C 52.574219 24.5 42.109375 13.269531 42.109375 -4.339844 C 42.109375 -35.21875 68.652344 -60.230469 103.105469 -62.269531 C 123.011719 -63.292969 130.15625 -67.886719 130.15625 -79.113281 C 130.15625 -89.066406 121.480469 -94.683594 106.675781 -94.683594 C 52.828125 -94.683594 6.890625 -51.808594 6.890625 -1.53125 C 6.890625 33.6875 30.878906 57.421875 66.609375 57.421875 C 100.042969 57.421875 124.289062 37.261719 142.664062 -5.871094 C 145.214844 -11.738281 150.0625 -23.734375 154.402344 -33.941406 L 184.773438 -108.972656 L 188.089844 -93.660156 C 190.386719 -84.21875 194.46875 -79.625 201.105469 -79.625 C 206.464844 -79.625 212.078125 -82.941406 217.695312 -89.066406 L 241.683594 -114.84375 L 209.78125 -39.8125 C 205.445312 -29.605469 204.421875 -26.542969 204.421875 -20.671875 C 204.421875 -13.527344 208.761719 -6.378906 215.140625 -3.0625 C 219.480469 -0.765625 224.074219 0 231.476562 0 L 258.527344 0 C 269.246094 0 278.179688 -7.910156 278.179688 -17.609375 C 278.179688 -25.265625 273.328125 -29.605469 264.140625 -29.859375 Z M 240.664062 -29.859375 "/></g></g></g><g fill="#000000" fill-opacity="1"><g transform="translate(764.003992, 436.76899)"><g><path d="M 38.027344 -27.308594 L 55.890625 -71.203125 L 57.167969 -74.777344 C 58.441406 -77.582031 59.207031 -80.644531 59.207031 -83.199219 C 59.207031 -90.089844 53.59375 -95.191406 46.449219 -95.191406 C 38.28125 -95.191406 31.644531 -90.34375 27.816406 -81.15625 L 26.542969 -77.839844 L 5.871094 -27.308594 C 3.828125 -21.949219 3.316406 -20.160156 3.316406 -16.84375 C 3.316406 -6.125 11.996094 0 27.050781 0 L 49.765625 0 C 59.71875 0 67.886719 -7.144531 67.886719 -16.078125 C 67.886719 -23.222656 63.292969 -27.050781 55.125 -27.308594 Z M 54.613281 -100.550781 C 64.3125 -100.550781 71.96875 -108.207031 71.96875 -117.652344 C 71.96875 -127.605469 64.3125 -135.261719 54.359375 -135.261719 C 44.917969 -135.261719 37.261719 -127.351562 37.261719 -117.90625 C 37.261719 -108.464844 45.171875 -100.550781 54.613281 -100.550781 Z M 54.613281 -100.550781 "/></g></g></g><g fill="#000000" fill-opacity="1"><g transform="translate(833.421003, 436.76899)"><g><path d="M 98 -27.308594 L 111.78125 -60.738281 C 113.566406 -65.078125 114.332031 -69.671875 114.332031 -73.246094 C 114.332031 -87.027344 103.105469 -96.980469 87.28125 -96.980469 C 78.347656 -96.980469 72.222656 -94.683594 62.015625 -86.769531 C 59.207031 -92.640625 55.125 -95.449219 48.488281 -95.449219 C 40.832031 -95.449219 34.964844 -91.363281 31.902344 -83.199219 L 6.636719 -21.183594 L 5.359375 -17.863281 C 4.082031 -15.058594 3.316406 -11.738281 3.316406 -9.1875 C 3.316406 -2.550781 8.933594 2.550781 16.078125 2.550781 C 24.246094 2.550781 30.625 -2.296875 34.453125 -11.484375 L 35.984375 -14.800781 L 50.53125 -50.785156 C 52.0625 -54.613281 54.359375 -58.441406 57.167969 -62.015625 C 61.503906 -67.628906 65.84375 -70.183594 71.203125 -70.183594 C 76.308594 -70.183594 80.136719 -67.121094 80.136719 -63.035156 C 80.136719 -61.25 79.625 -59.207031 78.347656 -56.144531 L 67.375 -29.09375 C 64.566406 -21.949219 63.800781 -19.652344 63.800781 -15.824219 C 63.800781 -6.890625 71.714844 0 81.921875 0 L 110.761719 0 C 120.714844 0 128.882812 -7.144531 128.882812 -16.078125 C 128.882812 -23.222656 124.289062 -27.050781 116.121094 -27.308594 Z M 98 -27.308594 "/></g></g></g><g fill="#000000" fill-opacity="1"><g transform="translate(964.088299, 436.76899)"><g><path d="M 88.8125 -27.308594 L 137.8125 -148.023438 L 139.089844 -151.339844 C 140.367188 -154.148438 141.132812 -157.464844 141.132812 -160.015625 C 141.132812 -166.652344 135.515625 -172.011719 128.371094 -172.011719 C 120.203125 -172.011719 113.824219 -166.90625 109.738281 -157.71875 L 108.464844 -154.402344 L 80.644531 -86.261719 C 74.519531 -93.660156 67.121094 -96.980469 56.65625 -96.980469 C 29.09375 -96.980469 3.316406 -66.863281 3.316406 -34.453125 C 3.316406 -14.800781 15.824219 0 32.15625 0 L 52.0625 0 C 56.402344 0 61.503906 -2.808594 66.609375 -7.910156 C 69.925781 -2.550781 74.265625 0 80.902344 0 L 100.808594 0 C 110.761719 0 118.671875 -7.144531 118.671875 -16.078125 C 118.671875 -23.222656 114.332031 -27.050781 105.910156 -27.308594 Z M 59.207031 -33.433594 C 57.933594 -30.113281 52.316406 -26.542969 48.746094 -26.542969 L 43.128906 -26.542969 C 36.238281 -26.542969 32.667969 -30.371094 32.667969 -37.769531 C 32.667969 -54.359375 46.449219 -71.96875 59.207031 -71.96875 C 65.332031 -71.96875 70.4375 -67.886719 70.4375 -63.035156 C 70.4375 -61.503906 70.183594 -59.972656 69.417969 -58.441406 L 68.652344 -56.402344 Z M 59.207031 -33.433594 "/></g></g></g><g fill="#000000" fill-opacity="1"><g transform="translate(1084.802408, 436.76899)"><g><path d="M 57.675781 -147.765625 L 52.828125 -140.875 L 50.53125 -137.558594 C 48.746094 -135.007812 47.722656 -132.710938 47.722656 -131.179688 C 47.722656 -128.625 50.785156 -126.074219 53.847656 -126.074219 C 57.675781 -126.074219 62.015625 -128.371094 70.4375 -135.261719 C 81.15625 -144.195312 84.984375 -150.0625 84.984375 -157.976562 C 84.984375 -166.90625 78.347656 -173.542969 69.671875 -173.542969 C 60.996094 -173.542969 53.847656 -166.90625 53.847656 -158.742188 C 53.847656 -155.167969 54.871094 -152.359375 57.675781 -147.765625 Z M 57.675781 -147.765625 "/></g></g></g><g fill="#000000" fill-opacity="1"><g transform="translate(1152.943362, 436.76899)"><g><path d="M 46.703125 -61.25 L 52.316406 -50.53125 C 54.613281 -45.683594 55.378906 -43.386719 55.378906 -40.066406 C 55.378906 -31.390625 49.765625 -27.308594 38.027344 -27.308594 L 20.671875 -27.308594 C 10.71875 -27.308594 2.550781 -19.90625 2.550781 -11.230469 C 2.550781 -4.082031 7.144531 -0.253906 15.3125 0 L 46.191406 0 C 47.46875 0 50.019531 -0.253906 53.847656 -1.277344 C 61.25 -2.808594 64.3125 -3.828125 67.628906 -5.871094 C 78.347656 -12.761719 85.238281 -25.011719 85.238281 -37.515625 C 85.238281 -46.449219 81.667969 -55.636719 74.519531 -65.84375 L 67.375 -75.796875 C 63.292969 -81.410156 61.503906 -86.261719 61.503906 -91.621094 C 61.503906 -93.152344 61.761719 -94.9375 62.015625 -96.722656 C 62.527344 -99.019531 62.78125 -100.808594 62.78125 -101.828125 C 62.78125 -107.441406 57.167969 -112.035156 50.785156 -112.035156 C 44.40625 -112.035156 39.8125 -108.464844 35.730469 -100.296875 L 19.140625 -66.609375 C 16.84375 -62.015625 15.566406 -57.675781 15.566406 -54.871094 C 15.566406 -49 21.949219 -43.386719 28.839844 -43.386719 C 35.472656 -43.386719 40.832031 -47.722656 44.152344 -55.636719 Z M 46.703125 -61.25 "/></g></g></g><g fill="#000000" fill-opacity="1"><g transform="translate(1244.308376, 436.76899)"><g/></g></g><g fill="#000000" fill-opacity="1"><g transform="translate(1292.032575, 436.76899)"><g><path d="M 104.125 -93.660156 L 93.660156 -93.660156 C 82.6875 -93.660156 74.011719 -85.75 74.011719 -76.050781 C 74.011719 -68.394531 79.113281 -64.058594 88.046875 -63.800781 L 92.128906 -63.800781 L 64.566406 4.082031 L 20.417969 4.082031 C 7.402344 4.082031 -3.316406 6.125 -11.996094 9.953125 C -28.328125 16.84375 -39.046875 33.941406 -39.046875 52.828125 C -39.046875 79.625 -17.863281 99.019531 11.484375 99.019531 C 30.625 99.019531 49.765625 90.597656 63.546875 75.796875 C 71.96875 66.863281 75.542969 60.738281 86.003906 37.515625 L 87.535156 33.941406 L 183.242188 33.941406 C 194.214844 33.941406 202.890625 26.285156 202.890625 16.332031 C 202.890625 8.675781 197.789062 4.339844 188.855469 4.082031 L 99.53125 4.082031 L 127.09375 -63.800781 L 152.359375 -63.800781 C 163.335938 -63.800781 172.011719 -71.714844 172.011719 -81.410156 C 172.011719 -89.066406 167.164062 -93.40625 158.230469 -93.660156 L 139.34375 -93.660156 L 158.230469 -140.367188 L 214.632812 -140.367188 C 225.605469 -140.367188 234.28125 -148.277344 234.28125 -157.976562 C 234.28125 -165.632812 229.433594 -169.96875 220.5 -170.226562 L 148.789062 -170.226562 C 138.578125 -170.226562 134.496094 -166.90625 129.390625 -154.65625 Z M 52.316406 33.941406 C 43.386719 55.378906 28.582031 68.140625 13.527344 68.140625 C 3.0625 68.140625 -4.847656 60.738281 -4.847656 51.296875 C -4.847656 43.894531 -0.511719 38.027344 7.144531 35.472656 C 10.464844 34.453125 13.015625 33.941406 19.394531 33.941406 Z M 52.316406 33.941406 "/></g></g></g><g fill="#000000" fill-opacity="1"><g transform="translate(1487.267905, 436.76899)"><g><path d="M 81.15625 5.105469 L 112.292969 -71.203125 L 113.566406 -74.777344 C 114.84375 -77.582031 115.355469 -80.644531 115.355469 -83.199219 C 115.355469 -90.089844 109.996094 -95.191406 102.59375 -95.191406 C 94.425781 -95.191406 88.046875 -90.34375 84.21875 -81.15625 L 82.941406 -77.839844 L 66.355469 -37.003906 C 64.058594 -31.390625 54.613281 -26.03125 47.214844 -26.03125 C 42.109375 -26.03125 39.300781 -28.074219 39.300781 -31.644531 C 39.300781 -33.6875 39.8125 -35.472656 42.109375 -41.34375 L 54.359375 -71.203125 C 56.910156 -77.582031 57.675781 -80.136719 57.675781 -83.453125 C 57.675781 -90.089844 52.0625 -95.191406 44.660156 -95.191406 C 35.472656 -95.191406 30.113281 -90.34375 24.753906 -77.839844 L 11.230469 -44.152344 C 7.402344 -34.707031 5.871094 -29.09375 5.871094 -24.246094 C 5.871094 -9.699219 18.121094 0.511719 35.472656 0.511719 C 41.597656 0.511719 45.9375 -0.511719 52.828125 -3.828125 L 49.253906 5.105469 L 28.839844 5.105469 C 13.527344 5.105469 1.785156 6.636719 -6.378906 9.699219 C -23.988281 16.078125 -35.730469 32.410156 -35.730469 50.277344 C -35.730469 73.753906 -16.078125 91.875 9.1875 91.875 C 22.96875 91.875 36.238281 86.515625 46.191406 76.5625 C 52.0625 70.949219 57.167969 62.015625 65.332031 44.152344 C 68.140625 38.28125 68.394531 37.261719 70.183594 32.410156 L 93.40625 32.410156 C 103.359375 32.410156 111.527344 25.011719 111.527344 16.332031 C 111.527344 9.1875 106.933594 5.359375 98.765625 5.105469 Z M 40.324219 32.410156 C 35.730469 41.855469 33.175781 46.957031 29.605469 51.550781 C 23.480469 60.230469 16.589844 64.3125 8.675781 64.3125 C 0.253906 64.3125 -5.613281 58.699219 -5.613281 50.53125 C -5.613281 38.535156 4.082031 32.410156 22.96875 32.410156 Z M 40.324219 32.410156 "/></g></g></g><g fill="#000000" fill-opacity="1"><g transform="translate(1603.64344, 436.76899)"><g><path d="M 33.175781 -36.496094 L 58.1875 -36.496094 C 68.652344 -36.496094 72.222656 -37.003906 77.839844 -39.558594 C 88.046875 -43.894531 94.425781 -54.105469 94.425781 -65.84375 C 94.425781 -84.472656 80.136719 -96.980469 58.699219 -96.980469 C 28.582031 -96.980469 3.316406 -70.4375 3.316406 -38.535156 C 3.316406 -24.5 8.421875 -13.527344 17.863281 -6.378906 C 24.5 -1.53125 31.136719 0 43.640625 0 L 81.921875 0 C 91.875 0 100.042969 -7.144531 100.042969 -16.078125 C 100.042969 -23.222656 95.449219 -27.050781 87.28125 -27.308594 L 47.214844 -27.308594 C 38.027344 -27.308594 33.175781 -30.371094 33.175781 -36.496094 Z M 39.046875 -59.207031 C 43.386719 -67.375 49.765625 -71.714844 57.421875 -71.714844 C 62.269531 -71.714844 65.84375 -68.652344 65.84375 -64.824219 C 65.84375 -60.996094 62.015625 -59.207031 52.828125 -59.207031 Z M 39.046875 -59.207031 "/></g></g></g></g></g></g></g></g></g></mask><clipPath id="2f7191f8b3"><path d="M 0 0.0234375 L 1874.761719 0.0234375 L 1874.761719 749.976562 L 0 749.976562 Z M 0 0.0234375 " clip-rule="nonzero"/></clipPath><clipPath id="cc00c597d2"><rect x="0" width="1875" y="0" height="750"/></clipPath><clipPath id="ead7d32abf"><rect x="0" width="1875" y="0" height="750"/></clipPath><clipPath id="0b1b1688cd"><rect x="0" width="1875" y="0" height="750"/></clipPath></defs><g mask="url(#fe1cd3d37a)"><g transform="matrix(1, 0, 0, 1, 161, 204)"><g clip-path="url(#42c513984e)"><g clip-path="url(#bd9719d0e2)"><path fill="#146de3" d="M 2.882812 124.125 C -23.625 -34.609375 253.664062 -15.816406 226.394531 51.582031 C 223.628906 56.371094 226.207031 56.917969 231.707031 64.546875 C 284.257812 150.671875 215.234375 111.46875 270.605469 176.828125 C 281.265625 188.601562 278.296875 200.242188 266.972656 202.628906 C 254.507812 204.667969 259.683594 210.78125 264.296875 216.886719 C 273.023438 232.59375 249.128906 230.539062 258.035156 237.574219 C 265.742188 243.003906 267.628906 253.914062 257.941406 257.347656 C 245.605469 264.136719 253.082031 272.933594 251.199219 280.683594 C 246.679688 312.832031 217.089844 304.394531 183.929688 294.371094 C 173.445312 295.835938 174.171875 312.972656 169.769531 320.917969 C 161.546875 336.949219 150.101562 353.875 154.535156 372.851562 C 166.398438 404.199219 67.277344 338.027344 55.667969 337.835938 C 42.011719 333.207031 27.992188 328.648438 13.476562 328.257812 C 10.878906 328.261719 9.105469 327.445312 11.492188 324.734375 C 76.0625 225.832031 32.558594 212.726562 2.882812 124.125 Z M 2.882812 124.125 " fill-opacity="1" fill-rule="nonzero"/></g></g></g></g><g clip-path="url(#fdd89f1815)"><g clip-path="url(#4e264e2354)"><g clip-path="url(#b0694883b3)"><g clip-path="url(#0bf56cd07e)"><path fill="#ffffff" d="M 173.324219 385.078125 L 234.546875 197.90625 L 419.09375 258.269531 L 357.867188 445.445312 Z M 173.324219 385.078125 " fill-opacity="1" fill-rule="nonzero"/></g></g></g></g><g clip-path="url(#a602a2e477)"><g clip-path="url(#5d74cb4fb3)"><g clip-path="url(#17d52d0cca)"><g clip-path="url(#516cb5974a)"><path fill="#ffffff" d="M 197.769531 375.921875 L 247.515625 223.835938 L 397.5 272.894531 L 347.753906 424.980469 Z M 197.769531 375.921875 " fill-opacity="1" fill-rule="nonzero"/></g></g></g></g><g clip-path="url(#1ac083eab1)"><g clip-path="url(#e18196e3ab)"><g clip-path="url(#ae1fb21ad0)"><path fill="#ffffff" d="M 334.636719 201.980469 L 302.996094 319.324219 L 408.777344 361.285156 L 298.832031 332.476562 L 254.824219 445.984375 L 286.484375 328.578125 L 180.683594 286.675781 L 290.648438 315.421875 Z M 334.636719 201.980469 " fill-opacity="0.302" fill-rule="evenodd"/></g></g></g><g clip-path="url(#e0269db2e8)"><g clip-path="url(#1c4ea60a3a)"><g clip-path="url(#cb2547277b)"><path fill="#ffffff" d="M 301.011719 304.777344 C 311.640625 308.253906 317.410156 319.636719 313.933594 330.261719 C 310.457031 340.890625 299.074219 346.664062 288.449219 343.1875 C 277.820312 339.710938 272.050781 328.328125 275.527344 317.699219 C 279.003906 307.070312 290.382812 301.300781 301.011719 304.777344 Z M 301.011719 304.777344 " fill-opacity="0.102" fill-rule="evenodd"/></g></g></g><g clip-path="url(#95e0694684)"><g clip-path="url(#b6724a6bb4)"><g clip-path="url(#da2210aa40)"><path fill="#ffffff" d="M 298.855469 311.363281 C 305.816406 313.640625 309.5625 321.128906 307.304688 328.027344 C 305.027344 334.988281 297.542969 338.730469 290.644531 336.472656 C 283.683594 334.195312 279.941406 326.710938 282.195312 319.8125 C 284.453125 312.914062 291.894531 309.085938 298.855469 311.363281 Z M 298.855469 311.363281 " fill-opacity="0.2" fill-rule="evenodd"/></g></g></g><g clip-path="url(#84a519854d)"><g clip-path="url(#b0baa7a310)"><g clip-path="url(#bfa872ea33)"><path fill="#ffffff" d="M 326.914062 225.597656 L 299.160156 321.371094 L 386.710938 354.070312 L 297.03125 328.519531 L 262.570312 422.304688 L 290.300781 326.589844 L 202.746094 293.894531 L 292.429688 319.445312 Z M 326.914062 225.597656 " fill-opacity="0.302" fill-rule="evenodd"/></g></g></g><g clip-path="url(#7077956da2)"><g clip-path="url(#f9316afe16)"><g clip-path="url(#03ad6b3425)"><path fill="#ffffff" d="M 311.910156 271.464844 L 296.542969 323.0625 L 343.828125 340.042969 L 295.503906 325.816406 L 277.550781 376.5 L 292.9375 324.839844 L 245.632812 307.921875 L 293.953125 322.144531 Z M 311.910156 271.464844 " fill-opacity="1" fill-rule="evenodd"/></g></g></g><g clip-path="url(#6ba422daef)"><g clip-path="url(#fac0149557)"><g clip-path="url(#a281d80c32)"><path fill="#ffffff" d="M 303.742188 326.929688 C 303.546875 327.519531 303.300781 328.089844 302.992188 328.628906 C 302.6875 329.171875 302.332031 329.679688 301.929688 330.152344 C 301.523438 330.625 301.074219 331.054688 300.585938 331.4375 C 300.097656 331.824219 299.574219 332.15625 299.019531 332.4375 C 298.460938 332.71875 297.886719 332.945312 297.285156 333.113281 C 296.6875 333.28125 296.078125 333.386719 295.457031 333.433594 C 294.835938 333.484375 294.214844 333.46875 293.597656 333.394531 C 292.980469 333.320312 292.375 333.1875 291.78125 332.992188 C 291.191406 332.800781 290.625 332.550781 290.082031 332.246094 C 289.539062 331.941406 289.03125 331.585938 288.558594 331.179688 C 288.085938 330.773438 287.65625 330.328125 287.273438 329.835938 C 286.886719 329.347656 286.554688 328.824219 286.273438 328.269531 C 285.992188 327.714844 285.765625 327.136719 285.597656 326.535156 C 285.433594 325.9375 285.324219 325.328125 285.277344 324.707031 C 285.230469 324.085938 285.242188 323.464844 285.316406 322.847656 C 285.390625 322.230469 285.523438 321.625 285.71875 321.035156 C 285.910156 320.441406 286.160156 319.875 286.464844 319.332031 C 286.773438 318.789062 287.128906 318.28125 287.53125 317.808594 C 287.9375 317.335938 288.386719 316.90625 288.875 316.523438 C 289.363281 316.140625 289.886719 315.804688 290.441406 315.523438 C 290.996094 315.242188 291.574219 315.019531 292.175781 314.851562 C 292.773438 314.683594 293.382812 314.574219 294.003906 314.527344 C 294.625 314.480469 295.246094 314.492188 295.863281 314.566406 C 296.480469 314.640625 297.085938 314.777344 297.679688 314.96875 C 298.269531 315.164062 298.835938 315.414062 299.378906 315.71875 C 299.921875 316.023438 300.429688 316.378906 300.902344 316.785156 C 301.375 317.1875 301.804688 317.636719 302.1875 318.125 C 302.574219 318.617188 302.90625 319.136719 303.1875 319.695312 C 303.46875 320.25 303.691406 320.824219 303.859375 321.425781 C 304.027344 322.023438 304.136719 322.636719 304.183594 323.257812 C 304.230469 323.875 304.21875 324.496094 304.144531 325.113281 C 304.070312 325.734375 303.9375 326.335938 303.742188 326.929688 Z M 303.742188 326.929688 " fill-opacity="1" fill-rule="nonzero"/></g></g></g><g clip-path="url(#9a087a4653)"><g clip-path="url(#ad814d0770)"><g clip-path="url(#4b3ecc9b4b)"><path fill="#ffffff" d="M 301.011719 304.777344 C 302.875 305.386719 301.625 314.472656 298.148438 325.097656 C 294.691406 335.664062 290.375 343.816406 288.449219 343.1875 C 286.582031 342.574219 287.835938 333.492188 291.3125 322.863281 C 294.789062 312.234375 299.148438 304.167969 301.011719 304.777344 Z M 301.011719 304.777344 " fill-opacity="0.549" fill-rule="evenodd"/></g></g></g><g clip-path="url(#e364e10397)"><g clip-path="url(#a1d3e599b2)"><g clip-path="url(#c06d30f4cd)"><path fill="#ffffff" d="M 275.527344 317.699219 C 276.136719 315.835938 285.222656 317.085938 295.847656 320.5625 C 306.414062 324.019531 314.566406 328.335938 313.933594 330.261719 C 313.324219 332.128906 304.238281 330.875 293.613281 327.398438 C 283.066406 323.882812 274.914062 319.5625 275.527344 317.699219 Z M 275.527344 317.699219 " fill-opacity="0.549" fill-rule="evenodd"/></g></g></g><g clip-path="url(#edbe30ddaf)"><g clip-path="url(#1ca66a9c59)"><g clip-path="url(#ca1f579154)"><path fill="#ffffff" d="M 306.683594 287.4375 C 326.882812 294.042969 337.882812 315.738281 331.273438 335.933594 C 324.667969 356.132812 302.976562 367.132812 282.777344 360.527344 C 262.578125 353.917969 251.578125 332.226562 258.1875 312.027344 C 264.792969 291.828125 286.484375 280.828125 306.683594 287.4375 Z M 306.683594 287.4375 " fill-opacity="0.102" fill-rule="evenodd"/></g></g></g><g clip-path="url(#970f97d81c)"><g clip-path="url(#7703250fbc)"><g clip-path="url(#c1283ff1ec)"><g clip-path="url(#c459437d5c)"><path fill="#ffffff" d="M 157.46875 392.289062 L 226.175781 182.25 L 434.433594 250.375 L 365.730469 460.410156 Z M 157.46875 392.289062 " fill-opacity="1" fill-rule="nonzero"/></g></g></g></g><g clip-path="url(#79aef4e0ee)"><g transform="matrix(1, 0, 0, 1, 0, -0.000000000000087524)"><g clip-path="url(#0b1b1688cd)"><g clip-path="url(#a8d6d0d5ab)"><g transform="matrix(1, 0, 0, 1, 0, -0.000000000000087524)"><g clip-path="url(#ead7d32abf)"><g clip-path="url(#cc0a1a0800)"><g mask="url(#530278f44a)"><g transform="matrix(1, 0, 0, 1, 0, -0.000000000000087524)"><g clip-path="url(#cc00c597d2)"><g clip-path="url(#2f7191f8b3)"><path fill="url(#2295001ac8)" d="M 0 0.0234375 L 0 749.976562 L 1874.761719 749.976562 L 1874.761719 0.0234375 Z M 0 0.0234375 " fill-rule="nonzero"/></g></g></g></g></g></g></g></g></g></g></g></svg>