<svg xmlns="http://www.w3.org/2000/svg" xmlns:xlink="http://www.w3.org/1999/xlink" width="500" zoomAndPan="magnify" viewBox="0 0 375 374.999991" height="500" preserveAspectRatio="xMidYMid meet" version="1.0"><defs><filter x="0%" y="0%" width="100%" height="100%" id="8556dbc68c"><feColorMatrix values="0 0 0 0 1 0 0 0 0 1 0 0 0 0 1 0 0 0 1 0" color-interpolation-filters="sRGB"/></filter><g/><clipPath id="0609e9bad7"><path d="M 375 75 L 375 300 C 375 319.890625 367.097656 338.96875 353.03125 353.03125 C 338.96875 367.097656 319.890625 375 300 375 L 75 375 C 55.109375 375 36.03125 367.097656 21.96875 353.03125 C 7.902344 338.96875 0 319.890625 0 300 L 0 75 C 0 33.578125 33.578125 0 75 0 L 300 0 C 319.890625 0 338.96875 7.902344 353.03125 21.96875 C 367.097656 36.03125 375 55.109375 375 75 Z M 375 75 " clip-rule="nonzero"/></clipPath><clipPath id="ece01d952e"><path d="M 0 0 L 375 0 L 375 375 L 0 375 Z M 0 0 " clip-rule="nonzero"/></clipPath><clipPath id="f3964c3a30"><path d="M 375 75 L 375 300 C 375 319.890625 367.097656 338.96875 353.03125 353.03125 C 338.96875 367.097656 319.890625 375 300 375 L 75 375 C 55.109375 375 36.03125 367.097656 21.96875 353.03125 C 7.902344 338.96875 0 319.890625 0 300 L 0 75 C 0 33.578125 33.578125 0 75 0 L 300 0 C 319.890625 0 338.96875 7.902344 353.03125 21.96875 C 367.097656 36.03125 375 55.109375 375 75 Z M 375 75 " clip-rule="nonzero"/></clipPath><clipPath id="17f5aa2fd4"><rect x="0" width="375" y="0" height="375"/></clipPath><clipPath id="b974a8b773"><path d="M 0 0 L 375 0 L 375 375 L 0 375 Z M 0 0 " clip-rule="nonzero"/></clipPath><linearGradient x1="-17.046502" gradientTransform="matrix(2.019553, 0, 0, 2.025364, 34.426321, 128.766042)" y1="29" x2="168.638125" gradientUnits="userSpaceOnUse" y2="29" id="fb1b80e85a"><stop stop-opacity="1" stop-color="rgb(12.939453%, 3.529358%, 30.198669%)" offset="0"/><stop stop-opacity="1" stop-color="rgb(12.939453%, 3.529358%, 30.198669%)" offset="0.0625"/><stop stop-opacity="1" stop-color="rgb(12.95929%, 3.559875%, 30.281067%)" offset="0.09375"/><stop stop-opacity="1" stop-color="rgb(13.059998%, 3.710938%, 30.699158%)" offset="0.0976562"/><stop stop-opacity="1" stop-color="rgb(13.140869%, 3.833008%, 31.033325%)" offset="0.101562"/><stop stop-opacity="1" stop-color="rgb(13.220215%, 3.955078%, 31.365967%)" offset="0.105469"/><stop stop-opacity="1" stop-color="rgb(13.301086%, 4.077148%, 31.700134%)" offset="0.109375"/><stop stop-opacity="1" stop-color="rgb(13.381958%, 4.199219%, 32.032776%)" offset="0.113281"/><stop stop-opacity="1" stop-color="rgb(13.46283%, 4.321289%, 32.366943%)" offset="0.117187"/><stop stop-opacity="1" stop-color="rgb(13.543701%, 4.441833%, 32.699585%)" offset="0.121094"/><stop stop-opacity="1" stop-color="rgb(13.624573%, 4.563904%, 33.033752%)" offset="0.125"/><stop stop-opacity="1" stop-color="rgb(13.703918%, 4.685974%, 33.366394%)" offset="0.128906"/><stop stop-opacity="1" stop-color="rgb(13.78479%, 4.808044%, 33.700562%)" offset="0.132812"/><stop stop-opacity="1" stop-color="rgb(13.865662%, 4.930115%, 34.034729%)" offset="0.136719"/><stop stop-opacity="1" stop-color="rgb(13.946533%, 5.052185%, 34.368896%)" offset="0.140625"/><stop stop-opacity="1" stop-color="rgb(14.025879%, 5.172729%, 34.701538%)" offset="0.144531"/><stop stop-opacity="1" stop-color="rgb(14.10675%, 5.2948%, 35.035706%)" offset="0.148437"/><stop stop-opacity="1" stop-color="rgb(14.187622%, 5.41687%, 35.368347%)" offset="0.152344"/><stop stop-opacity="1" stop-color="rgb(14.268494%, 5.53894%, 35.702515%)" offset="0.15625"/><stop stop-opacity="1" stop-color="rgb(14.349365%, 5.661011%, 36.035156%)" offset="0.160156"/><stop stop-opacity="1" stop-color="rgb(14.430237%, 5.783081%, 36.369324%)" offset="0.164062"/><stop stop-opacity="1" stop-color="rgb(14.509583%, 5.903625%, 36.701965%)" offset="0.167969"/><stop stop-opacity="1" stop-color="rgb(14.590454%, 6.025696%, 37.036133%)" offset="0.171875"/><stop stop-opacity="1" stop-color="rgb(14.671326%, 6.147766%, 37.3703%)" offset="0.175781"/><stop stop-opacity="1" stop-color="rgb(14.752197%, 6.269836%, 37.704468%)" offset="0.179687"/><stop stop-opacity="1" stop-color="rgb(14.831543%, 6.391907%, 38.037109%)" offset="0.183594"/><stop stop-opacity="1" stop-color="rgb(14.912415%, 6.513977%, 38.371277%)" offset="0.1875"/><stop stop-opacity="1" stop-color="rgb(14.993286%, 6.634521%, 38.703918%)" offset="0.191406"/><stop stop-opacity="1" stop-color="rgb(15.074158%, 6.756592%, 39.038086%)" offset="0.195313"/><stop stop-opacity="1" stop-color="rgb(15.155029%, 6.878662%, 39.370728%)" offset="0.199219"/><stop stop-opacity="1" stop-color="rgb(15.235901%, 7.000732%, 39.704895%)" offset="0.203125"/><stop stop-opacity="1" stop-color="rgb(15.315247%, 7.122803%, 40.037537%)" offset="0.207031"/><stop stop-opacity="1" stop-color="rgb(15.396118%, 7.244873%, 40.371704%)" offset="0.210938"/><stop stop-opacity="1" stop-color="rgb(15.47699%, 7.365417%, 40.705872%)" offset="0.214844"/><stop stop-opacity="1" stop-color="rgb(15.557861%, 7.487488%, 41.040039%)" offset="0.21875"/><stop stop-opacity="1" stop-color="rgb(15.637207%, 7.609558%, 41.372681%)" offset="0.222656"/><stop stop-opacity="1" stop-color="rgb(15.718079%, 7.731628%, 41.706848%)" offset="0.226562"/><stop stop-opacity="1" stop-color="rgb(15.79895%, 7.853699%, 42.03949%)" offset="0.230469"/><stop stop-opacity="1" stop-color="rgb(15.879822%, 7.975769%, 42.373657%)" offset="0.234375"/><stop stop-opacity="1" stop-color="rgb(15.960693%, 8.096313%, 42.706299%)" offset="0.238281"/><stop stop-opacity="1" stop-color="rgb(16.041565%, 8.218384%, 43.040466%)" offset="0.242188"/><stop stop-opacity="1" stop-color="rgb(16.120911%, 8.340454%, 43.373108%)" offset="0.246094"/><stop stop-opacity="1" stop-color="rgb(16.201782%, 8.462524%, 43.707275%)" offset="0.25"/><stop stop-opacity="1" stop-color="rgb(16.282654%, 8.584595%, 44.041443%)" offset="0.253906"/><stop stop-opacity="1" stop-color="rgb(16.363525%, 8.706665%, 44.37561%)" offset="0.257812"/><stop stop-opacity="1" stop-color="rgb(16.442871%, 8.827209%, 44.708252%)" offset="0.261719"/><stop stop-opacity="1" stop-color="rgb(16.523743%, 8.94928%, 45.042419%)" offset="0.265625"/><stop stop-opacity="1" stop-color="rgb(16.604614%, 9.07135%, 45.375061%)" offset="0.269531"/><stop stop-opacity="1" stop-color="rgb(16.685486%, 9.19342%, 45.709229%)" offset="0.273438"/><stop stop-opacity="1" stop-color="rgb(16.766357%, 9.315491%, 46.04187%)" offset="0.277344"/><stop stop-opacity="1" stop-color="rgb(16.847229%, 9.437561%, 46.376038%)" offset="0.28125"/><stop stop-opacity="1" stop-color="rgb(16.926575%, 9.558105%, 46.708679%)" offset="0.285156"/><stop stop-opacity="1" stop-color="rgb(17.007446%, 9.680176%, 47.042847%)" offset="0.289062"/><stop stop-opacity="1" stop-color="rgb(17.088318%, 9.802246%, 47.377014%)" offset="0.292969"/><stop stop-opacity="1" stop-color="rgb(17.169189%, 9.924316%, 47.711182%)" offset="0.296875"/><stop stop-opacity="1" stop-color="rgb(17.250061%, 10.046387%, 48.043823%)" offset="0.300781"/><stop stop-opacity="1" stop-color="rgb(17.330933%, 10.168457%, 48.377991%)" offset="0.304688"/><stop stop-opacity="1" stop-color="rgb(17.410278%, 10.289001%, 48.710632%)" offset="0.308594"/><stop stop-opacity="1" stop-color="rgb(17.49115%, 10.411072%, 49.0448%)" offset="0.3125"/><stop stop-opacity="1" stop-color="rgb(17.572021%, 10.533142%, 49.377441%)" offset="0.316406"/><stop stop-opacity="1" stop-color="rgb(17.652893%, 10.655212%, 49.711609%)" offset="0.320312"/><stop stop-opacity="1" stop-color="rgb(17.732239%, 10.777283%, 50.04425%)" offset="0.324219"/><stop stop-opacity="1" stop-color="rgb(17.81311%, 10.899353%, 50.378418%)" offset="0.328125"/><stop stop-opacity="1" stop-color="rgb(17.893982%, 11.019897%, 50.712585%)" offset="0.332031"/><stop stop-opacity="1" stop-color="rgb(17.974854%, 11.141968%, 51.046753%)" offset="0.335938"/><stop stop-opacity="1" stop-color="rgb(18.055725%, 11.264038%, 51.379395%)" offset="0.339844"/><stop stop-opacity="1" stop-color="rgb(18.136597%, 11.386108%, 51.713562%)" offset="0.34375"/><stop stop-opacity="1" stop-color="rgb(18.215942%, 11.508179%, 52.046204%)" offset="0.347656"/><stop stop-opacity="1" stop-color="rgb(18.296814%, 11.630249%, 52.380371%)" offset="0.351562"/><stop stop-opacity="1" stop-color="rgb(18.377686%, 11.750793%, 52.713013%)" offset="0.355469"/><stop stop-opacity="1" stop-color="rgb(18.458557%, 11.872864%, 53.04718%)" offset="0.359375"/><stop stop-opacity="1" stop-color="rgb(18.537903%, 11.994934%, 53.379822%)" offset="0.363281"/><stop stop-opacity="1" stop-color="rgb(18.618774%, 12.117004%, 53.713989%)" offset="0.367187"/><stop stop-opacity="1" stop-color="rgb(18.699646%, 12.237549%, 54.048157%)" offset="0.371094"/><stop stop-opacity="1" stop-color="rgb(18.780518%, 12.359619%, 54.382324%)" offset="0.375"/><stop stop-opacity="1" stop-color="rgb(18.861389%, 12.481689%, 54.714966%)" offset="0.378906"/><stop stop-opacity="1" stop-color="rgb(18.942261%, 12.60376%, 55.049133%)" offset="0.382813"/><stop stop-opacity="1" stop-color="rgb(19.021606%, 12.72583%, 55.381775%)" offset="0.386719"/><stop stop-opacity="1" stop-color="rgb(19.102478%, 12.8479%, 55.715942%)" offset="0.390625"/><stop stop-opacity="1" stop-color="rgb(19.18335%, 12.968445%, 56.048584%)" offset="0.394531"/><stop stop-opacity="1" stop-color="rgb(19.264221%, 13.090515%, 56.382751%)" offset="0.398438"/><stop stop-opacity="1" stop-color="rgb(19.343567%, 13.212585%, 56.715393%)" offset="0.402344"/><stop stop-opacity="1" stop-color="rgb(19.424438%, 13.334656%, 57.049561%)" offset="0.40625"/><stop stop-opacity="1" stop-color="rgb(19.50531%, 13.456726%, 57.383728%)" offset="0.410156"/><stop stop-opacity="1" stop-color="rgb(19.586182%, 13.578796%, 57.717896%)" offset="0.414062"/><stop stop-opacity="1" stop-color="rgb(19.667053%, 13.699341%, 58.050537%)" offset="0.417969"/><stop stop-opacity="1" stop-color="rgb(19.747925%, 13.821411%, 58.384705%)" offset="0.421875"/><stop stop-opacity="1" stop-color="rgb(19.827271%, 13.943481%, 58.717346%)" offset="0.425781"/><stop stop-opacity="1" stop-color="rgb(19.908142%, 14.065552%, 59.051514%)" offset="0.429688"/><stop stop-opacity="1" stop-color="rgb(19.989014%, 14.187622%, 59.384155%)" offset="0.433594"/><stop stop-opacity="1" stop-color="rgb(20.069885%, 14.309692%, 59.718323%)" offset="0.4375"/><stop stop-opacity="1" stop-color="rgb(20.149231%, 14.430237%, 60.050964%)" offset="0.441406"/><stop stop-opacity="1" stop-color="rgb(20.230103%, 14.552307%, 60.385132%)" offset="0.445312"/><stop stop-opacity="1" stop-color="rgb(20.310974%, 14.674377%, 60.719299%)" offset="0.449219"/><stop stop-opacity="1" stop-color="rgb(20.391846%, 14.796448%, 61.053467%)" offset="0.453125"/><stop stop-opacity="1" stop-color="rgb(20.472717%, 14.918518%, 61.386108%)" offset="0.457031"/><stop stop-opacity="1" stop-color="rgb(20.553589%, 15.040588%, 61.720276%)" offset="0.460937"/><stop stop-opacity="1" stop-color="rgb(20.632935%, 15.161133%, 62.052917%)" offset="0.464844"/><stop stop-opacity="1" stop-color="rgb(20.713806%, 15.283203%, 62.387085%)" offset="0.46875"/><stop stop-opacity="1" stop-color="rgb(20.794678%, 15.405273%, 62.719727%)" offset="0.472656"/><stop stop-opacity="1" stop-color="rgb(20.875549%, 15.527344%, 63.053894%)" offset="0.476562"/><stop stop-opacity="1" stop-color="rgb(20.954895%, 15.649414%, 63.386536%)" offset="0.480469"/><stop stop-opacity="1" stop-color="rgb(21.035767%, 15.771484%, 63.720703%)" offset="0.484375"/><stop stop-opacity="1" stop-color="rgb(21.116638%, 15.892029%, 64.054871%)" offset="0.488281"/><stop stop-opacity="1" stop-color="rgb(21.19751%, 16.014099%, 64.389038%)" offset="0.492188"/><stop stop-opacity="1" stop-color="rgb(21.278381%, 16.136169%, 64.72168%)" offset="0.496094"/><stop stop-opacity="1" stop-color="rgb(21.359253%, 16.25824%, 65.055847%)" offset="0.5"/><stop stop-opacity="1" stop-color="rgb(21.438599%, 16.38031%, 65.388489%)" offset="0.503906"/><stop stop-opacity="1" stop-color="rgb(21.51947%, 16.50238%, 65.722656%)" offset="0.507812"/><stop stop-opacity="1" stop-color="rgb(21.600342%, 16.622925%, 66.055298%)" offset="0.511719"/><stop stop-opacity="1" stop-color="rgb(21.681213%, 16.744995%, 66.389465%)" offset="0.515625"/><stop stop-opacity="1" stop-color="rgb(21.760559%, 16.867065%, 66.723633%)" offset="0.519531"/><stop stop-opacity="1" stop-color="rgb(21.841431%, 16.989136%, 67.0578%)" offset="0.523438"/><stop stop-opacity="1" stop-color="rgb(21.922302%, 17.111206%, 67.390442%)" offset="0.527344"/><stop stop-opacity="1" stop-color="rgb(22.003174%, 17.233276%, 67.724609%)" offset="0.53125"/><stop stop-opacity="1" stop-color="rgb(22.084045%, 17.353821%, 68.057251%)" offset="0.535156"/><stop stop-opacity="1" stop-color="rgb(22.164917%, 17.475891%, 68.391418%)" offset="0.539062"/><stop stop-opacity="1" stop-color="rgb(22.244263%, 17.597961%, 68.72406%)" offset="0.542969"/><stop stop-opacity="1" stop-color="rgb(22.325134%, 17.720032%, 69.058228%)" offset="0.546875"/><stop stop-opacity="1" stop-color="rgb(22.406006%, 17.842102%, 69.390869%)" offset="0.550781"/><stop stop-opacity="1" stop-color="rgb(22.486877%, 17.964172%, 69.725037%)" offset="0.554687"/><stop stop-opacity="1" stop-color="rgb(22.566223%, 18.084717%, 70.059204%)" offset="0.558594"/><stop stop-opacity="1" stop-color="rgb(22.647095%, 18.206787%, 70.393372%)" offset="0.5625"/><stop stop-opacity="1" stop-color="rgb(22.727966%, 18.328857%, 70.726013%)" offset="0.566406"/><stop stop-opacity="1" stop-color="rgb(22.808838%, 18.450928%, 71.060181%)" offset="0.570313"/><stop stop-opacity="1" stop-color="rgb(22.889709%, 18.572998%, 71.392822%)" offset="0.574219"/><stop stop-opacity="1" stop-color="rgb(22.970581%, 18.695068%, 71.72699%)" offset="0.578125"/><stop stop-opacity="1" stop-color="rgb(23.049927%, 18.815613%, 72.059631%)" offset="0.582031"/><stop stop-opacity="1" stop-color="rgb(23.130798%, 18.937683%, 72.393799%)" offset="0.585938"/><stop stop-opacity="1" stop-color="rgb(23.21167%, 19.059753%, 72.72644%)" offset="0.589844"/><stop stop-opacity="1" stop-color="rgb(23.292542%, 19.181824%, 73.060608%)" offset="0.59375"/><stop stop-opacity="1" stop-color="rgb(23.373413%, 19.303894%, 73.394775%)" offset="0.597656"/><stop stop-opacity="1" stop-color="rgb(23.454285%, 19.425964%, 73.728943%)" offset="0.601563"/><stop stop-opacity="1" stop-color="rgb(23.53363%, 19.546509%, 74.061584%)" offset="0.605469"/><stop stop-opacity="1" stop-color="rgb(23.614502%, 19.668579%, 74.395752%)" offset="0.609375"/><stop stop-opacity="1" stop-color="rgb(23.695374%, 19.790649%, 74.728394%)" offset="0.613281"/><stop stop-opacity="1" stop-color="rgb(23.776245%, 19.91272%, 75.062561%)" offset="0.617188"/><stop stop-opacity="1" stop-color="rgb(23.855591%, 20.03479%, 75.395203%)" offset="0.621094"/><stop stop-opacity="1" stop-color="rgb(23.936462%, 20.15686%, 75.72937%)" offset="0.625"/><stop stop-opacity="1" stop-color="rgb(24.017334%, 20.277405%, 76.062012%)" offset="0.628906"/><stop stop-opacity="1" stop-color="rgb(24.098206%, 20.399475%, 76.396179%)" offset="0.632812"/><stop stop-opacity="1" stop-color="rgb(24.179077%, 20.521545%, 76.730347%)" offset="0.636719"/><stop stop-opacity="1" stop-color="rgb(24.259949%, 20.643616%, 77.064514%)" offset="0.640625"/><stop stop-opacity="1" stop-color="rgb(24.339294%, 20.765686%, 77.397156%)" offset="0.644531"/><stop stop-opacity="1" stop-color="rgb(24.420166%, 20.887756%, 77.731323%)" offset="0.648438"/><stop stop-opacity="1" stop-color="rgb(24.501038%, 21.008301%, 78.063965%)" offset="0.652344"/><stop stop-opacity="1" stop-color="rgb(24.581909%, 21.130371%, 78.398132%)" offset="0.65625"/><stop stop-opacity="1" stop-color="rgb(24.661255%, 21.252441%, 78.730774%)" offset="0.660156"/><stop stop-opacity="1" stop-color="rgb(24.742126%, 21.374512%, 79.064941%)" offset="0.664062"/><stop stop-opacity="1" stop-color="rgb(24.822998%, 21.496582%, 79.397583%)" offset="0.667969"/><stop stop-opacity="1" stop-color="rgb(24.90387%, 21.618652%, 79.73175%)" offset="0.671875"/><stop stop-opacity="1" stop-color="rgb(24.984741%, 21.739197%, 80.065918%)" offset="0.675781"/><stop stop-opacity="1" stop-color="rgb(25.065613%, 21.861267%, 80.400085%)" offset="0.679688"/><stop stop-opacity="1" stop-color="rgb(25.144958%, 21.983337%, 80.732727%)" offset="0.683594"/><stop stop-opacity="1" stop-color="rgb(25.22583%, 22.105408%, 81.066895%)" offset="0.6875"/><stop stop-opacity="1" stop-color="rgb(25.306702%, 22.227478%, 81.399536%)" offset="0.691406"/><stop stop-opacity="1" stop-color="rgb(25.387573%, 22.349548%, 81.733704%)" offset="0.695312"/><stop stop-opacity="1" stop-color="rgb(25.466919%, 22.470093%, 82.066345%)" offset="0.699219"/><stop stop-opacity="1" stop-color="rgb(25.547791%, 22.592163%, 82.400513%)" offset="0.703125"/><stop stop-opacity="1" stop-color="rgb(25.628662%, 22.714233%, 82.733154%)" offset="0.707031"/><stop stop-opacity="1" stop-color="rgb(25.709534%, 22.836304%, 83.067322%)" offset="0.710938"/><stop stop-opacity="1" stop-color="rgb(25.790405%, 22.958374%, 83.401489%)" offset="0.714844"/><stop stop-opacity="1" stop-color="rgb(25.871277%, 23.080444%, 83.735657%)" offset="0.71875"/><stop stop-opacity="1" stop-color="rgb(25.950623%, 23.200989%, 84.068298%)" offset="0.722656"/><stop stop-opacity="1" stop-color="rgb(26.031494%, 23.323059%, 84.402466%)" offset="0.726562"/><stop stop-opacity="1" stop-color="rgb(26.112366%, 23.445129%, 84.735107%)" offset="0.730469"/><stop stop-opacity="1" stop-color="rgb(26.193237%, 23.5672%, 85.069275%)" offset="0.734375"/><stop stop-opacity="1" stop-color="rgb(26.272583%, 23.68927%, 85.401917%)" offset="0.738281"/><stop stop-opacity="1" stop-color="rgb(26.353455%, 23.81134%, 85.736084%)" offset="0.742187"/><stop stop-opacity="1" stop-color="rgb(26.434326%, 23.931885%, 86.068726%)" offset="0.746094"/><stop stop-opacity="1" stop-color="rgb(26.515198%, 24.053955%, 86.402893%)" offset="0.75"/><stop stop-opacity="1" stop-color="rgb(26.596069%, 24.176025%, 86.737061%)" offset="0.753906"/><stop stop-opacity="1" stop-color="rgb(26.676941%, 24.298096%, 87.071228%)" offset="0.757813"/><stop stop-opacity="1" stop-color="rgb(26.756287%, 24.420166%, 87.40387%)" offset="0.761719"/><stop stop-opacity="1" stop-color="rgb(26.837158%, 24.542236%, 87.738037%)" offset="0.765625"/><stop stop-opacity="1" stop-color="rgb(26.91803%, 24.662781%, 88.070679%)" offset="0.769531"/><stop stop-opacity="1" stop-color="rgb(26.998901%, 24.784851%, 88.404846%)" offset="0.773438"/><stop stop-opacity="1" stop-color="rgb(27.078247%, 24.906921%, 88.737488%)" offset="0.777344"/><stop stop-opacity="1" stop-color="rgb(27.159119%, 25.028992%, 89.071655%)" offset="0.78125"/><stop stop-opacity="1" stop-color="rgb(27.23999%, 25.151062%, 89.404297%)" offset="0.785156"/><stop stop-opacity="1" stop-color="rgb(27.320862%, 25.273132%, 89.738464%)" offset="0.789062"/><stop stop-opacity="1" stop-color="rgb(27.401733%, 25.393677%, 90.072632%)" offset="0.792969"/><stop stop-opacity="1" stop-color="rgb(27.482605%, 25.515747%, 90.406799%)" offset="0.796875"/><stop stop-opacity="1" stop-color="rgb(27.561951%, 25.637817%, 90.739441%)" offset="0.800781"/><stop stop-opacity="1" stop-color="rgb(27.642822%, 25.759888%, 91.073608%)" offset="0.804688"/><stop stop-opacity="1" stop-color="rgb(27.723694%, 25.880432%, 91.40625%)" offset="0.808594"/><stop stop-opacity="1" stop-color="rgb(27.804565%, 26.002502%, 91.740417%)" offset="0.8125"/><stop stop-opacity="1" stop-color="rgb(27.883911%, 26.124573%, 92.073059%)" offset="0.816406"/><stop stop-opacity="1" stop-color="rgb(27.964783%, 26.246643%, 92.407227%)" offset="0.820312"/><stop stop-opacity="1" stop-color="rgb(28.045654%, 26.368713%, 92.739868%)" offset="0.824219"/><stop stop-opacity="1" stop-color="rgb(28.126526%, 26.490784%, 93.074036%)" offset="0.828125"/><stop stop-opacity="1" stop-color="rgb(28.207397%, 26.611328%, 93.408203%)" offset="0.832031"/><stop stop-opacity="1" stop-color="rgb(28.288269%, 26.733398%, 93.742371%)" offset="0.835938"/><stop stop-opacity="1" stop-color="rgb(28.367615%, 26.855469%, 94.075012%)" offset="0.839844"/><stop stop-opacity="1" stop-color="rgb(28.448486%, 26.977539%, 94.40918%)" offset="0.84375"/><stop stop-opacity="1" stop-color="rgb(28.529358%, 27.099609%, 94.741821%)" offset="0.847656"/><stop stop-opacity="1" stop-color="rgb(28.610229%, 27.22168%, 95.075989%)" offset="0.851562"/><stop stop-opacity="1" stop-color="rgb(28.689575%, 27.342224%, 95.40863%)" offset="0.855469"/><stop stop-opacity="1" stop-color="rgb(28.770447%, 27.464294%, 95.742798%)" offset="0.859375"/><stop stop-opacity="1" stop-color="rgb(28.851318%, 27.586365%, 96.075439%)" offset="0.863281"/><stop stop-opacity="1" stop-color="rgb(28.93219%, 27.708435%, 96.409607%)" offset="0.867188"/><stop stop-opacity="1" stop-color="rgb(29.013062%, 27.830505%, 96.743774%)" offset="0.871094"/><stop stop-opacity="1" stop-color="rgb(29.093933%, 27.952576%, 97.077942%)" offset="0.875"/><stop stop-opacity="1" stop-color="rgb(29.173279%, 28.07312%, 97.410583%)" offset="0.878906"/><stop stop-opacity="1" stop-color="rgb(29.25415%, 28.19519%, 97.744751%)" offset="0.882812"/><stop stop-opacity="1" stop-color="rgb(29.335022%, 28.317261%, 98.077393%)" offset="0.886719"/><stop stop-opacity="1" stop-color="rgb(29.415894%, 28.439331%, 98.41156%)" offset="0.890625"/><stop stop-opacity="1" stop-color="rgb(29.496765%, 28.561401%, 98.744202%)" offset="0.894531"/><stop stop-opacity="1" stop-color="rgb(29.577637%, 28.683472%, 99.078369%)" offset="0.898437"/><stop stop-opacity="1" stop-color="rgb(29.656982%, 28.804016%, 99.411011%)" offset="0.902344"/><stop stop-opacity="1" stop-color="rgb(29.737854%, 28.926086%, 99.745178%)" offset="0.90625"/><stop stop-opacity="1" stop-color="rgb(29.768372%, 28.971863%, 99.871826%)" offset="0.9375"/><stop stop-opacity="1" stop-color="rgb(29.798889%, 29.019165%, 100%)" offset="1"/></linearGradient><clipPath id="8e215a8026"><rect x="0" width="375" y="0" height="375"/></clipPath><clipPath id="a2bcd3ed92"><rect x="0" width="375" y="0" height="375"/></clipPath><clipPath id="8b537f92b9"><rect x="0" width="375" y="0" height="375"/></clipPath><mask id="e631891eb2"><g filter="url(#8556dbc68c)"><g transform="matrix(1, 0, 0, 1, 0, 0)"><g clip-path="url(#8b537f92b9)"><g transform="matrix(1, 0, 0, 1, 0, 0)"><g clip-path="url(#a2bcd3ed92)"><g fill="#000000" fill-opacity="1"><g transform="translate(33.990346, 218.849723)"><g><path d="M 44.34375 -41.84375 L 44.34375 -30.800781 C 41.324219 -37.960938 33.5625 -42.621094 25.277344 -42.621094 C 13.199219 -42.621094 3.363281 -33.128906 3.363281 -20.878906 C 3.363281 -8.28125 13.199219 0.949219 25.363281 0.949219 C 33.5625 0.949219 40.289062 -3.019531 44.34375 -10.699219 L 44.34375 0 L 46.847656 0 L 46.847656 -41.84375 Z M 25.105469 -40.289062 C 35.890625 -40.289062 44.691406 -31.835938 44.691406 -20.707031 C 44.691406 -9.75 36.0625 -1.292969 25.453125 -1.292969 C 14.496094 -1.292969 5.953125 -9.75 5.953125 -20.878906 C 5.953125 -31.75 14.582031 -40.289062 25.105469 -40.289062 Z M 25.105469 -40.289062 "/></g></g></g><g fill="#000000" fill-opacity="1"><g transform="translate(88.338922, 218.849723)"><g><path d="M 6.902344 -41.84375 L 6.902344 -18.289062 C 6.902344 -17.945312 6.902344 -17.6875 6.902344 -17.339844 C 6.902344 -12.164062 8.28125 -8.453125 11.128906 -5.175781 C 14.40625 -1.292969 19.324219 0.949219 24.675781 0.949219 C 32.179688 0.949219 39.515625 -4.226562 41.5 -10.871094 C 42.1875 -13.199219 42.535156 -16.738281 42.535156 -22.34375 L 42.535156 -41.84375 L 40.03125 -41.84375 L 40.03125 -20.621094 C 40.03125 -13.632812 39.167969 -10.4375 36.496094 -7.074219 C 33.476562 -3.277344 29.332031 -1.292969 24.675781 -1.292969 C 18.203125 -1.292969 11.734375 -6.125 10.09375 -12.164062 C 9.578125 -13.890625 9.316406 -17.339844 9.316406 -20.621094 L 9.316406 -41.84375 Z M 6.902344 -41.84375 "/></g></g></g><g fill="#000000" fill-opacity="1"><g transform="translate(137.597692, 218.849723)"><g><path d="M 2.070312 -41.84375 L 2.070312 -39.429688 L 20.964844 -39.429688 L 20.964844 0 L 23.46875 0 L 23.46875 -39.429688 L 42.101562 -39.429688 L 42.101562 -41.84375 Z M 2.070312 -41.84375 "/></g></g></g><g fill="#000000" fill-opacity="1"><g transform="translate(181.766689, 218.849723)"><g><path d="M 10.007812 0 L 10.007812 -22.863281 C 10.007812 -25.453125 10.09375 -27.261719 10.785156 -29.59375 C 12.683594 -36.0625 18.464844 -40.289062 25.191406 -40.289062 C 31.578125 -40.289062 37.53125 -36.148438 39.515625 -30.195312 C 40.117188 -28.472656 40.464844 -26.3125 40.464844 -23.726562 L 40.464844 0 L 42.964844 0 L 42.964844 -21.136719 C 42.964844 -24.15625 42.964844 -25.710938 42.707031 -27.523438 C 41.5 -36.40625 33.820312 -42.621094 25.191406 -42.621094 C 18.464844 -42.621094 12.941406 -39.167969 10.007812 -32.957031 L 10.007812 -63.414062 L 7.507812 -63.414062 L 7.507812 0 Z M 10.007812 0 "/></g></g></g><g fill="#000000" fill-opacity="1"><g transform="translate(231.543093, 218.849723)"><g><path d="M 7.507812 -42.792969 L 7.507812 0 L 10.007812 0 L 10.007812 -37.011719 L 51.332031 1.035156 L 51.332031 -41.84375 L 48.832031 -41.84375 L 48.832031 -4.660156 Z M 7.507812 -42.792969 "/></g></g></g><g fill="#000000" fill-opacity="1"><g transform="translate(290.377587, 218.849723)"><g><path d="M 25.277344 -42.621094 C 13.027344 -42.621094 3.363281 -32.957031 3.363281 -20.792969 C 3.363281 -8.628906 12.941406 0.949219 25.191406 0.949219 C 37.445312 0.949219 47.191406 -8.714844 47.191406 -20.792969 C 47.191406 -32.957031 37.445312 -42.621094 25.277344 -42.621094 Z M 25.191406 -40.289062 C 36.148438 -40.289062 44.605469 -31.75 44.605469 -20.878906 C 44.605469 -9.75 36.234375 -1.292969 25.277344 -1.292969 C 14.496094 -1.292969 5.953125 -9.835938 5.953125 -20.707031 C 5.953125 -31.75 14.40625 -40.289062 25.191406 -40.289062 Z M 25.191406 -40.289062 "/></g></g></g></g></g></g></g></g></mask><clipPath id="b567e60f6e"><path d="M 0 0 L 375 0 L 375 375 L 0 375 Z M 0 0 " clip-rule="nonzero"/></clipPath><clipPath id="1e8285df09"><rect x="0" width="375" y="0" height="375"/></clipPath><clipPath id="b6747069a7"><rect x="0" width="375" y="0" height="375"/></clipPath><clipPath id="25595c73ad"><rect x="0" width="375" y="0" height="375"/></clipPath></defs><g clip-path="url(#0609e9bad7)"><g transform="matrix(1, 0, 0, 1, 0, 0)"><g clip-path="url(#17f5aa2fd4)"><g clip-path="url(#ece01d952e)"><g clip-path="url(#f3964c3a30)"><rect x="-82.5" width="540" fill="#000000" height="539.999987" y="-82.499998" fill-opacity="1"/></g></g></g></g></g><g fill="#21094d" fill-opacity="1"><g transform="translate(32.223635, 219.748022)"><g><path d="M 46.5 -42.332031 L 46.5 -31.160156 L 43.355469 -30.523438 C 41.976562 -33.800781 39.644531 -36.445312 36.359375 -38.460938 C 33.082031 -40.476562 29.484375 -41.480469 25.574219 -41.480469 C 22.78125 -41.480469 20.117188 -40.957031 17.578125 -39.910156 C 15.117188 -38.898438 12.941406 -37.460938 11.054688 -35.601562 C 9.160156 -33.738281 7.691406 -31.585938 6.65625 -29.148438 C 5.578125 -26.617188 5.039062 -23.941406 5.039062 -21.121094 C 5.039062 -18.21875 5.582031 -15.492188 6.660156 -12.933594 C 7.691406 -10.480469 9.160156 -8.328125 11.0625 -6.472656 C 12.945312 -4.636719 15.128906 -3.214844 17.605469 -2.214844 C 20.148438 -1.191406 22.832031 -0.675781 25.660156 -0.675781 C 29.535156 -0.675781 32.976562 -1.589844 35.984375 -3.417969 C 39.042969 -5.277344 41.523438 -8 43.417969 -11.585938 L 46.5 -10.824219 L 46.5 0 L 44.863281 0 L 44.863281 -1.636719 L 47.394531 -1.636719 L 47.394531 0 L 45.757812 0 L 45.757812 -42.332031 L 47.394531 -42.332031 L 47.394531 -40.695312 L 44.863281 -40.695312 L 44.863281 -42.332031 Z M 43.226562 -43.96875 L 49.03125 -43.96875 L 49.03125 1.636719 L 43.226562 1.636719 L 43.226562 -10.824219 L 44.863281 -10.824219 L 46.3125 -10.058594 C 44.136719 -5.9375 41.257812 -2.792969 37.683594 -0.621094 C 34.152344 1.523438 30.144531 2.597656 25.660156 2.597656 C 22.410156 2.597656 19.316406 2.003906 16.378906 0.820312 C 13.503906 -0.339844 10.96875 -1.992188 8.773438 -4.132812 C 6.558594 -6.292969 4.847656 -8.800781 3.644531 -11.660156 C 2.394531 -14.625 1.765625 -17.777344 1.765625 -21.121094 C 1.765625 -24.386719 2.394531 -27.488281 3.644531 -30.429688 C 4.847656 -33.265625 6.554688 -35.765625 8.757812 -37.9375 C 10.953125 -40.09375 13.476562 -41.761719 16.332031 -42.9375 C 19.269531 -44.148438 22.347656 -44.753906 25.574219 -44.753906 C 27.804688 -44.753906 29.992188 -44.453125 32.140625 -43.84375 C 34.253906 -43.246094 36.230469 -42.382812 38.074219 -41.25 C 39.933594 -40.109375 41.5625 -38.75 42.964844 -37.171875 C 44.414062 -35.539062 45.550781 -33.746094 46.371094 -31.796875 L 44.863281 -31.160156 L 43.226562 -31.160156 Z M 25.398438 -42.398438 C 28.304688 -42.398438 31.082031 -41.851562 33.722656 -40.761719 C 36.300781 -39.699219 38.574219 -38.191406 40.546875 -36.242188 C 42.539062 -34.277344 44.074219 -32.007812 45.160156 -29.429688 C 46.285156 -26.757812 46.851562 -23.929688 46.851562 -20.949219 C 46.851562 -18.011719 46.296875 -15.21875 45.191406 -12.574219 C 44.125 -10.019531 42.617188 -7.765625 40.664062 -5.816406 C 38.722656 -3.871094 36.484375 -2.371094 33.953125 -1.308594 C 31.347656 -0.21875 28.613281 0.328125 25.75 0.328125 C 22.804688 0.328125 20.007812 -0.21875 17.367188 -1.308594 C 14.792969 -2.371094 12.527344 -3.878906 10.570312 -5.835938 C 8.609375 -7.796875 7.097656 -10.070312 6.03125 -12.652344 C 4.933594 -15.316406 4.386719 -18.140625 4.386719 -21.121094 C 4.386719 -24.039062 4.9375 -26.820312 6.042969 -29.460938 C 7.109375 -32.011719 8.613281 -34.261719 10.558594 -36.21875 C 12.496094 -38.171875 14.722656 -39.679688 17.242188 -40.746094 C 19.839844 -41.847656 22.558594 -42.398438 25.398438 -42.398438 Z M 25.398438 -39.125 C 23 -39.125 20.707031 -38.660156 18.519531 -37.734375 C 16.394531 -36.832031 14.515625 -35.558594 12.878906 -33.914062 C 11.234375 -32.257812 9.964844 -30.355469 9.0625 -28.199219 C 8.128906 -25.960938 7.660156 -23.601562 7.660156 -21.121094 C 7.660156 -18.570312 8.125 -16.164062 9.058594 -13.902344 C 9.957031 -11.71875 11.234375 -9.804688 12.886719 -8.152344 C 14.535156 -6.503906 16.445312 -5.230469 18.613281 -4.335938 C 20.859375 -3.410156 23.234375 -2.945312 25.75 -2.945312 C 28.175781 -2.945312 30.488281 -3.40625 32.6875 -4.328125 C 34.824219 -5.222656 36.710938 -6.492188 38.351562 -8.128906 C 39.996094 -9.777344 41.269531 -11.679688 42.171875 -13.835938 C 43.109375 -16.078125 43.578125 -18.449219 43.578125 -20.949219 C 43.578125 -23.488281 43.097656 -25.890625 42.144531 -28.160156 C 41.226562 -30.335938 39.929688 -32.253906 38.25 -33.914062 C 36.578125 -35.5625 34.652344 -36.835938 32.472656 -37.738281 C 30.230469 -38.664062 27.875 -39.125 25.398438 -39.125 Z M 25.398438 -39.125 "/></g></g></g><g fill="#21094d" fill-opacity="1"><g transform="translate(87.21081, 219.748022)"><g><path d="M 8.621094 -42.332031 L 8.621094 -17.542969 C 8.621094 -15.144531 8.941406 -13.035156 9.585938 -11.214844 C 10.199219 -9.46875 11.171875 -7.835938 12.496094 -6.308594 C 14.007812 -4.519531 15.84375 -3.132812 18 -2.15625 C 20.179688 -1.167969 22.5 -0.675781 24.964844 -0.675781 C 26.652344 -0.675781 28.34375 -0.957031 30.027344 -1.515625 C 31.667969 -2.0625 33.203125 -2.835938 34.625 -3.835938 C 36.042969 -4.832031 37.25 -5.984375 38.246094 -7.289062 C 39.253906 -8.609375 39.980469 -10.003906 40.414062 -11.464844 C 41.070312 -13.667969 41.394531 -17.382812 41.394531 -22.605469 L 41.394531 -42.332031 L 43.03125 -42.332031 L 43.03125 -40.695312 L 40.5 -40.695312 L 40.5 -42.332031 L 42.136719 -42.332031 L 42.136719 -20.859375 C 42.136719 -17.199219 41.859375 -14.320312 41.308594 -12.21875 C 40.738281 -10.054688 39.703125 -8.027344 38.203125 -6.140625 C 36.527344 -4.03125 34.554688 -2.425781 32.28125 -1.320312 C 30.019531 -0.222656 27.582031 0.328125 24.964844 0.328125 C 23.167969 0.328125 21.375 0.0078125 19.582031 -0.625 C 17.867188 -1.234375 16.265625 -2.09375 14.777344 -3.207031 C 13.285156 -4.316406 12.015625 -5.601562 10.96875 -7.054688 C 9.871094 -8.578125 9.09375 -10.1875 8.632812 -11.878906 L 10.210938 -12.308594 L 8.644531 -11.835938 C 8.074219 -13.734375 7.789062 -16.742188 7.789062 -20.859375 L 7.789062 -42.332031 L 9.425781 -42.332031 L 9.425781 -40.695312 L 6.984375 -40.695312 L 6.984375 -42.332031 Z M 5.347656 -43.96875 L 11.0625 -43.96875 L 11.0625 -20.859375 C 11.0625 -19.171875 11.125 -17.59375 11.253906 -16.136719 C 11.382812 -14.628906 11.558594 -13.511719 11.78125 -12.777344 L 11.785156 -12.757812 L 11.792969 -12.734375 C 12.148438 -11.425781 12.757812 -10.167969 13.625 -8.96875 C 14.476562 -7.785156 15.511719 -6.738281 16.734375 -5.828125 C 17.957031 -4.914062 19.273438 -4.210938 20.675781 -3.710938 C 22.113281 -3.199219 23.542969 -2.945312 24.964844 -2.945312 C 27.078125 -2.945312 29.042969 -3.386719 30.847656 -4.265625 C 32.675781 -5.152344 34.273438 -6.457031 35.640625 -8.175781 C 36.855469 -9.707031 37.691406 -11.332031 38.144531 -13.050781 C 38.625 -14.878906 38.863281 -17.480469 38.863281 -20.859375 L 38.863281 -43.96875 L 44.667969 -43.96875 L 44.667969 -22.605469 C 44.667969 -17.066406 44.296875 -13.039062 43.550781 -10.53125 C 43 -8.683594 42.097656 -6.941406 40.847656 -5.300781 C 39.648438 -3.730469 38.203125 -2.351562 36.511719 -1.160156 C 34.824219 0.0273438 33.007812 0.945312 31.058594 1.589844 C 29.039062 2.261719 27.007812 2.597656 24.964844 2.597656 C 22.027344 2.597656 19.257812 2.007812 16.652344 0.824219 C 14.042969 -0.355469 11.835938 -2.019531 10.023438 -4.164062 C 8.429688 -6 7.253906 -7.988281 6.496094 -10.125 C 5.730469 -12.300781 5.347656 -14.773438 5.347656 -17.542969 Z M 5.347656 -43.96875 "/></g></g></g><g fill="#21094d" fill-opacity="1"><g transform="translate(137.048385, 219.748022)"><g><path d="M 3.730469 -42.332031 L 3.730469 -39.890625 L 2.09375 -39.890625 L 2.09375 -41.527344 L 22.847656 -41.527344 L 22.847656 0 L 21.210938 0 L 21.210938 -1.636719 L 23.742188 -1.636719 L 23.742188 0 L 22.105469 0 L 22.105469 -41.527344 L 42.59375 -41.527344 L 42.59375 -39.890625 L 40.957031 -39.890625 L 40.957031 -42.332031 L 42.59375 -42.332031 L 42.59375 -40.695312 L 2.09375 -40.695312 L 2.09375 -42.332031 Z M 0.457031 -43.96875 L 44.230469 -43.96875 L 44.230469 -38.253906 L 23.742188 -38.253906 L 23.742188 -39.890625 L 25.378906 -39.890625 L 25.378906 1.636719 L 19.574219 1.636719 L 19.574219 -39.890625 L 21.210938 -39.890625 L 21.210938 -38.253906 L 0.457031 -38.253906 Z M 0.457031 -43.96875 "/></g></g></g><g fill="#21094d" fill-opacity="1"><g transform="translate(181.73637, 219.748022)"><g><path d="M 8.488281 0 L 8.488281 -23.128906 C 8.488281 -24.65625 8.535156 -25.878906 8.628906 -26.796875 C 8.75 -28.007812 8.988281 -29.210938 9.339844 -30.402344 C 10.402344 -34.015625 12.417969 -36.921875 15.394531 -39.121094 C 18.347656 -41.304688 21.714844 -42.398438 25.488281 -42.398438 C 27.253906 -42.398438 28.992188 -42.121094 30.699219 -41.570312 C 32.359375 -41.03125 33.910156 -40.261719 35.339844 -39.253906 C 36.78125 -38.242188 38.027344 -37.050781 39.074219 -35.679688 C 40.160156 -34.261719 40.976562 -32.722656 41.527344 -31.066406 C 42.226562 -29.078125 42.574219 -26.722656 42.574219 -24.003906 L 42.574219 0 L 40.9375 0 L 40.9375 -1.636719 L 43.46875 -1.636719 L 43.46875 0 L 41.832031 0 L 41.832031 -21.386719 C 41.832031 -23.15625 41.820312 -24.367188 41.800781 -25.019531 C 41.769531 -25.96875 41.699219 -26.832031 41.585938 -27.613281 C 41.3125 -29.617188 40.691406 -31.488281 39.722656 -33.222656 C 38.789062 -34.894531 37.582031 -36.355469 36.105469 -37.601562 C 34.640625 -38.839844 33.007812 -39.792969 31.199219 -40.460938 C 29.355469 -41.140625 27.453125 -41.480469 25.488281 -41.480469 C 22.386719 -41.480469 19.640625 -40.722656 17.242188 -39.203125 C 14.828125 -37.675781 12.949219 -35.488281 11.605469 -32.644531 L 8.488281 -33.34375 L 8.488281 -64.15625 L 10.125 -64.15625 L 10.125 -62.519531 L 7.59375 -62.519531 L 7.59375 -64.15625 L 9.230469 -64.15625 L 9.230469 0 L 7.59375 0 L 7.59375 -1.636719 L 10.125 -1.636719 L 10.125 0 Z M 11.761719 1.636719 L 5.957031 1.636719 L 5.957031 -65.792969 L 11.761719 -65.792969 L 11.761719 -33.34375 L 10.125 -33.34375 L 8.644531 -34.042969 C 10.257812 -37.460938 12.539062 -40.101562 15.492188 -41.96875 C 18.421875 -43.828125 21.753906 -44.753906 25.488281 -44.753906 C 27.84375 -44.753906 30.125 -44.347656 32.332031 -43.53125 C 34.5 -42.730469 36.460938 -41.585938 38.21875 -40.101562 C 39.996094 -38.597656 41.449219 -36.835938 42.578125 -34.820312 C 43.75 -32.726562 44.5 -30.476562 44.828125 -28.074219 C 44.953125 -27.175781 45.035156 -26.195312 45.070312 -25.125 C 45.09375 -24.4375 45.105469 -23.191406 45.105469 -21.386719 L 45.105469 1.636719 L 39.300781 1.636719 L 39.300781 -24.003906 C 39.300781 -26.351562 39.007812 -28.363281 38.425781 -30.03125 C 37.535156 -32.695312 35.882812 -34.875 33.460938 -36.574219 C 31.039062 -38.273438 28.382812 -39.125 25.488281 -39.125 C 22.433594 -39.125 19.714844 -38.246094 17.339844 -36.488281 C 14.953125 -34.726562 13.335938 -32.386719 12.480469 -29.472656 C 12.183594 -28.476562 11.984375 -27.476562 11.882812 -26.46875 C 11.800781 -25.660156 11.761719 -24.546875 11.761719 -23.128906 Z M 11.761719 1.636719 "/></g></g></g><g fill="#21094d" fill-opacity="1"><g transform="translate(232.097637, 219.748022)"><g><path d="M 9.230469 -43.292969 L 9.230469 0 L 7.59375 0 L 7.59375 -1.636719 L 10.125 -1.636719 L 10.125 0 L 8.488281 0 L 8.488281 -41.175781 L 53.042969 -0.15625 L 51.933594 1.046875 L 50.296875 1.046875 L 50.296875 -42.332031 L 51.933594 -42.332031 L 51.933594 -40.695312 L 49.402344 -40.695312 L 49.402344 -42.332031 L 51.039062 -42.332031 L 51.039062 -0.976562 L 6.484375 -42.089844 L 7.59375 -43.292969 Z M 5.957031 -47.03125 L 50.511719 -5.917969 L 49.402344 -4.714844 L 47.765625 -4.714844 L 47.765625 -43.96875 L 53.570312 -43.96875 L 53.570312 4.777344 L 9.015625 -36.242188 L 10.125 -37.445312 L 11.761719 -37.445312 L 11.761719 1.636719 L 5.957031 1.636719 Z M 5.957031 -47.03125 "/></g></g></g><g fill="#21094d" fill-opacity="1"><g transform="translate(291.623436, 219.748022)"><g><path d="M 25.574219 -41.480469 C 22.746094 -41.480469 20.058594 -40.949219 17.511719 -39.886719 C 15.050781 -38.863281 12.878906 -37.410156 10.996094 -35.535156 C 9.117188 -33.65625 7.660156 -31.496094 6.632812 -29.046875 C 5.570312 -26.511719 5.039062 -23.839844 5.039062 -21.035156 C 5.039062 -18.226562 5.566406 -15.5625 6.621094 -13.039062 C 7.640625 -10.597656 9.085938 -8.445312 10.953125 -6.582031 C 12.824219 -4.714844 14.984375 -3.273438 17.433594 -2.257812 C 19.972656 -1.203125 22.660156 -0.675781 25.488281 -0.675781 C 28.316406 -0.675781 31.007812 -1.207031 33.566406 -2.269531 C 36.035156 -3.296875 38.21875 -4.746094 40.113281 -6.617188 C 42.003906 -8.492188 43.46875 -10.644531 44.503906 -13.082031 C 45.574219 -15.605469 46.109375 -18.253906 46.109375 -21.035156 C 46.109375 -23.835938 45.574219 -26.507812 44.503906 -29.042969 C 43.46875 -31.488281 42.007812 -33.652344 40.121094 -35.53125 C 38.234375 -37.410156 36.058594 -38.863281 33.601562 -39.890625 C 31.054688 -40.949219 28.382812 -41.480469 25.574219 -41.480469 Z M 25.574219 -44.753906 C 28.816406 -44.753906 31.914062 -44.140625 34.863281 -42.910156 C 37.714844 -41.71875 40.238281 -40.03125 42.429688 -37.851562 C 44.621094 -35.671875 46.320312 -33.160156 47.519531 -30.316406 C 48.761719 -27.371094 49.382812 -24.28125 49.382812 -21.035156 C 49.382812 -17.808594 48.761719 -14.734375 47.515625 -11.804688 C 46.3125 -8.96875 44.613281 -6.464844 42.414062 -4.292969 C 40.214844 -2.117188 37.683594 -0.4375 34.820312 0.753906 C 31.859375 1.980469 28.75 2.597656 25.488281 2.597656 C 22.222656 2.597656 19.121094 1.988281 16.179688 0.765625 C 13.332031 -0.417969 10.816406 -2.09375 8.640625 -4.265625 C 6.46875 -6.433594 4.785156 -8.9375 3.601562 -11.777344 C 2.378906 -14.703125 1.765625 -17.789062 1.765625 -21.035156 C 1.765625 -24.28125 2.382812 -27.371094 3.617188 -30.3125 C 4.808594 -33.15625 6.5 -35.671875 8.6875 -37.851562 C 10.871094 -40.03125 13.394531 -41.71875 16.25 -42.910156 C 19.203125 -44.140625 22.3125 -44.753906 25.574219 -44.753906 Z M 25.488281 -42.398438 C 28.429688 -42.398438 31.21875 -41.847656 33.859375 -40.75 C 36.421875 -39.6875 38.675781 -38.175781 40.621094 -36.222656 C 42.566406 -34.269531 44.070312 -32.015625 45.128906 -29.457031 C 46.21875 -26.824219 46.761719 -24.046875 46.761719 -21.121094 C 46.761719 -18.140625 46.222656 -15.320312 45.148438 -12.660156 C 44.097656 -10.074219 42.605469 -7.800781 40.671875 -5.84375 C 38.738281 -3.882812 36.492188 -2.371094 33.933594 -1.308594 C 31.308594 -0.21875 28.519531 0.328125 25.574219 0.328125 C 22.671875 0.328125 19.910156 -0.222656 17.285156 -1.320312 C 14.738281 -2.386719 12.496094 -3.898438 10.546875 -5.847656 C 8.601562 -7.804688 7.09375 -10.058594 6.03125 -12.609375 C 4.933594 -15.25 4.386719 -18.027344 4.386719 -20.949219 C 4.386719 -23.910156 4.929688 -26.71875 6.015625 -29.375 C 7.066406 -31.957031 8.5625 -34.226562 10.496094 -36.191406 C 12.433594 -38.15625 14.667969 -39.675781 17.207031 -40.746094 C 19.820312 -41.847656 22.582031 -42.398438 25.488281 -42.398438 Z M 25.488281 -39.125 C 23.023438 -39.125 20.6875 -38.660156 18.480469 -37.730469 C 16.339844 -36.828125 14.457031 -35.550781 12.828125 -33.898438 C 11.195312 -32.238281 9.933594 -30.320312 9.042969 -28.140625 C 8.121094 -25.875 7.660156 -23.480469 7.660156 -20.949219 C 7.660156 -18.464844 8.125 -16.105469 9.054688 -13.867188 C 9.953125 -11.710938 11.222656 -9.808594 12.867188 -8.160156 C 14.507812 -6.511719 16.402344 -5.238281 18.550781 -4.339844 C 20.769531 -3.410156 23.109375 -2.945312 25.574219 -2.945312 C 28.085938 -2.945312 30.453125 -3.410156 32.679688 -4.332031 C 34.828125 -5.226562 36.714844 -6.496094 38.34375 -8.144531 C 39.972656 -9.792969 41.230469 -11.707031 42.113281 -13.890625 C 43.03125 -16.15625 43.488281 -18.566406 43.488281 -21.121094 C 43.488281 -23.613281 43.027344 -25.972656 42.105469 -28.207031 C 41.210938 -30.363281 39.945312 -32.265625 38.304688 -33.910156 C 36.664062 -35.558594 34.761719 -36.832031 32.605469 -37.730469 C 30.367188 -38.660156 27.992188 -39.125 25.488281 -39.125 Z M 25.488281 -39.125 "/></g></g></g><g transform="matrix(1, 0, 0, 1, 0, 0)"><g clip-path="url(#25595c73ad)"><g transform="matrix(1, 0, 0, 1, 0, 0)"><g clip-path="url(#b6747069a7)"><g mask="url(#e631891eb2)"><g transform="matrix(1, 0, 0, 1, 0, 0)"><g clip-path="url(#1e8285df09)"><g clip-path="url(#b567e60f6e)"><rect x="-201.3" fill="url(#fb1b80e85a)" width="777.6" height="777.599981" y="-201.299995"/></g></g></g></g></g></g></g></g></svg>